<svg width="28" height="30" viewBox="0 0 28 30" fill="none" xmlns="http://www.w3.org/2000/svg">
<path fill-rule="evenodd" clip-rule="evenodd" d="M14.1704 5.20934C13.9634 5.20934 13.7954 5.04134 13.7954 4.83434V1.28174C13.7954 1.07474 13.9634 0.906738 14.1704 0.906738C14.3774 0.906738 14.5454 1.07474 14.5454 1.28174V4.83434C14.5454 5.04164 14.3777 5.20934 14.1704 5.20934ZM21.1934 8.12154C21.0986 8.12154 21.0032 8.08584 20.9303 8.01384C20.7827 7.86864 20.7809 7.63134 20.9261 7.48344L23.2697 5.10204C23.4149 4.95504 23.6525 4.95234 23.8001 5.09784C23.9477 5.24304 23.9495 5.48034 23.8043 5.62824L21.4607 8.00964C21.3872 8.08404 21.2903 8.12154 21.1934 8.12154ZM27.5813 15.5381C27.7883 15.5381 27.9563 15.3701 27.9563 15.1631C27.9563 14.9561 27.7883 14.7881 27.5813 14.7881H24.0785C23.8715 14.7881 23.7035 14.9561 23.7035 15.1631C23.7035 15.3701 23.8715 15.5381 24.0785 15.5381H27.5813ZM23.2697 24.897C23.3432 24.9717 23.4401 25.0089 23.537 25.0089C23.6318 25.0089 23.7272 24.9732 23.8001 24.9012C23.948 24.7557 23.9495 24.5184 23.8043 24.3708L21.4607 21.9906C21.3158 21.8427 21.0782 21.8409 20.9303 21.9864C20.7824 22.1319 20.7809 22.3692 20.9261 22.5168L23.2697 24.897ZM13.7954 28.7182C13.7954 28.9252 13.9634 29.0932 14.1704 29.0932C14.3777 29.0932 14.5454 28.9252 14.5454 28.7182V25.165C14.5454 24.958 14.3774 24.79 14.1704 24.79C13.9634 24.79 13.7954 24.958 13.7954 25.165V28.7182ZM4.20053 24.901C4.27373 24.973 4.36854 25.0087 4.46363 25.0087C4.56083 25.0087 4.65743 24.9712 4.73094 24.8968L7.07454 22.516C7.21974 22.3681 7.21793 22.1308 7.07034 21.9856C6.92243 21.8401 6.68513 21.8425 6.53994 21.9898L4.19633 24.3706C4.05113 24.5185 4.05293 24.7558 4.20053 24.901ZM3.923 15.5381C4.13 15.5381 4.2977 15.3701 4.2977 15.1631C4.2977 14.9561 4.1297 14.7881 3.9227 14.7881H0.418701C0.211701 14.7881 0.0437012 14.9561 0.0437012 15.1631C0.0437012 15.3701 0.211701 15.5381 0.418701 15.5381H3.923ZM6.54018 8.01005C6.61368 8.08445 6.71058 8.12195 6.80748 8.12195C6.90228 8.12195 6.99738 8.08625 7.07058 8.01425C7.21818 7.86905 7.21998 7.63145 7.07478 7.48385L4.73118 5.10215C4.58628 4.95485 4.34868 4.95245 4.20078 5.09795C4.05318 5.24315 4.05138 5.48075 4.19658 5.62835L6.54018 8.01005ZM6.4364 14.9997C6.4364 19.2114 9.8294 22.638 14 22.638C18.1706 22.638 21.5636 19.2114 21.5636 14.9997C21.5636 10.7877 18.1706 7.36084 14 7.36084C9.8294 7.36084 6.4364 10.7877 6.4364 14.9997ZM7.1864 14.9997C7.1864 11.2011 10.2431 8.11084 14 8.11084C17.7569 8.11084 20.8136 11.2011 20.8136 14.9997C20.8136 18.798 17.7572 21.888 14 21.888C10.2428 21.888 7.1864 18.798 7.1864 14.9997Z" fill="white"/>
</svg>
