<svg width="29" height="22" viewBox="0 0 29 22" fill="none" xmlns="http://www.w3.org/2000/svg">
<path fill-rule="evenodd" clip-rule="evenodd" d="M0 0H29V22H0V0Z" fill="#E30A17"/>
<path fill-rule="evenodd" clip-rule="evenodd" d="M18.4422 11.3438C18.4422 14.378 15.9682 16.8392 12.9141 16.8392C9.86005 16.8392 7.38599 14.378 7.38599 11.3392C7.38599 8.30047 9.86005 5.84839 12.9141 5.84839C15.9682 5.84839 18.4422 8.30964 18.4422 11.3438Z" fill="white"/>
<path fill-rule="evenodd" clip-rule="evenodd" d="M18.714 11.3438C18.714 13.7729 16.7384 15.7392 14.296 15.7392C11.8537 15.7392 9.87354 13.7684 9.87354 11.3392C9.87354 8.91003 11.8537 6.94836 14.296 6.94836C16.7384 6.94836 18.7185 8.91461 18.7185 11.3438H18.714Z" fill="#E30A17"/>
<path fill-rule="evenodd" clip-rule="evenodd" d="M19.5161 8.77704L19.4708 10.8075L17.5994 11.3208L19.4481 11.9854L19.4028 13.8508L20.6036 12.3933L22.4251 13.035L21.3739 11.472L22.6562 9.91829L20.6851 10.4683L19.5161 8.77246V8.77704Z" fill="white"/>
</svg>
