<svg width="78" height="80" viewBox="0 0 78 80" fill="none" xmlns="http://www.w3.org/2000/svg">
<path fill-rule="evenodd" clip-rule="evenodd" d="M27.4032 5C27.4032 4.17157 28.0748 3.5 28.9032 3.5H48.7097C49.5381 3.5 50.2097 4.17157 50.2097 5V27.1787H51.4839V27.9331L73 27.9331C73.8284 27.9331 74.5 28.6047 74.5 29.4331V49.937C74.5 50.7655 73.8284 51.437 73 51.437H51.4839V52.8213H50.4031V75C50.4031 75.8284 49.7316 76.5 48.9031 76.5H29.0967C28.2683 76.5 27.5967 75.8284 27.5967 75V52.8213H26.5161V51.437H5C4.17158 51.437 3.5 50.7655 3.5 49.937L3.5 29.4331C3.5 28.6047 4.17157 27.9331 5 27.9331L26.5161 27.9331V27.1787H27.4032V5ZM24.5967 54.437H5C2.51472 54.437 0.5 52.4223 0.5 49.937V29.4331C0.5 26.9478 2.51472 24.9331 5 24.9331L24.4032 24.9331V5C24.4032 2.51472 26.4179 0.5 28.9032 0.5H48.7097C51.1949 0.5 53.2097 2.51472 53.2097 5V24.9331L73 24.9331C75.4853 24.9331 77.5 26.9478 77.5 29.4331V49.937C77.5 52.4223 75.4853 54.437 73 54.437H53.4031V75C53.4031 77.4853 51.3884 79.5 48.9031 79.5H29.0967C26.6114 79.5 24.5967 77.4853 24.5967 75V54.437Z" fill="black"/>
</svg>
