<svg width="76" height="81" viewBox="0 0 76 81" fill="none" xmlns="http://www.w3.org/2000/svg">
<path fill-rule="evenodd" clip-rule="evenodd" d="M58.0547 1.80078C66.875 2.71313 72.1855 9.32886 75.0859 14.718C75.248 15.0203 75.2656 15.3677 75.1543 15.6731C75.0879 15.8582 74.9746 16.0281 74.8164 16.1633L65.1094 24.4836C64.8945 24.6685 64.623 24.7659 64.3477 24.7659C64.2285 24.7659 64.1094 24.7478 63.9922 24.7104C63.6055 24.5872 63.3086 24.2722 63.2109 23.8782C63.1875 23.7852 61.0156 15.4258 55.0977 11.8652C55.5625 13.3828 55.8125 14.9927 55.8125 16.6604V21.2131C57.418 21.7134 58.5859 23.2131 58.5859 24.9807C58.5859 27.1562 56.8164 28.926 54.6406 28.926H54.3848C53.9473 35.0874 50.0977 40.3203 44.7188 42.7412V46.4067L54.8262 50.8989C55.5664 51.2275 56.0957 51.8682 56.2793 52.6562C56.3887 53.1248 56.3633 53.5999 56.2168 54.0388C56.125 54.3147 55.9844 54.5762 55.7988 54.8127C56.6973 55.981 57.1992 57.4304 57.1992 58.9167V79.0627C57.1992 79.4705 56.9922 79.8296 56.6738 80.0396C56.4883 80.1628 56.2656 80.2346 56.0273 80.2346C55.3809 80.2346 54.8555 79.71 54.8555 79.0627V58.9167C54.8555 58.1292 54.6387 57.3582 54.2422 56.688L50.6367 61.0142C50.5273 61.145 50.4414 61.292 50.3789 61.4487C50.3047 61.6355 50.2656 61.8362 50.2656 62.0396V79.0627C50.2656 79.71 49.7402 80.2346 49.0938 80.2346C48.6367 80.2346 48.2402 79.9722 48.0469 79.5894C47.9668 79.4312 47.9219 79.2522 47.9219 79.0627V62.0393C47.9219 61.1182 48.2461 60.2209 48.8359 59.5134L53.9531 53.3743C54.0098 53.3064 54.0078 53.2356 53.9961 53.188C53.9844 53.1406 53.9551 53.0764 53.875 53.0405L44.7051 48.9653C44.4922 52.4795 41.5664 55.2734 38 55.2734C34.4336 55.2734 31.5078 52.4795 31.2949 48.9653L22.125 53.0405C22.0859 53.0579 22.0586 53.082 22.0391 53.1077C22.0195 53.1348 22.0098 53.1636 22.0039 53.188C21.9961 53.2158 21.9922 53.2517 22.002 53.2903C22.0098 53.3176 22.0234 53.3462 22.0469 53.3743L27.1641 59.5137C27.7539 60.2212 28.0781 61.1182 28.0781 62.0396V79.0627C28.0781 79.71 27.5527 80.2346 26.9063 80.2346C26.2598 80.2346 25.7344 79.71 25.7344 79.0627V62.0396C25.7344 61.8047 25.6836 61.5737 25.5859 61.3633C25.5273 61.2385 25.4531 61.1211 25.3633 61.0142L21.7578 56.6877C21.4785 57.1597 21.2891 57.6816 21.2012 58.2246C21.1641 58.4524 21.1445 58.6838 21.1445 58.9167V79.0627C21.1445 79.3594 21.0352 79.6301 20.8535 79.8364C20.6367 80.0806 20.3223 80.2346 19.9727 80.2346C19.3262 80.2346 18.8008 79.71 18.8008 79.0627V58.9167C18.8008 57.4307 19.3027 55.9812 20.2012 54.813C19.7207 54.1997 19.543 53.4192 19.7207 52.6565C19.9043 51.8682 20.4336 51.2278 21.1738 50.8989L31.2813 46.4067V42.7412C25.9023 40.3203 22.0527 35.0874 21.6152 28.926H21.3594C19.1836 28.926 17.4141 27.1562 17.4141 24.9807C17.4141 23.2131 18.582 21.7134 20.1875 21.2131V16.6604C20.1875 14.9922 20.4375 13.3816 20.9023 11.8633C14.9688 15.4258 12.8125 23.7844 12.7891 23.8782C12.6914 24.2722 12.3945 24.5872 12.0078 24.7104C11.8926 24.7478 11.7715 24.7659 11.6523 24.7659C11.5176 24.7659 11.3848 24.7429 11.2578 24.698C11.125 24.6504 11 24.5786 10.8906 24.4836L1.1836 16.1633C0.763674 15.8047 0.652346 15.2031 0.914065 14.718C3.81446 9.32886 9.125 2.71313 17.9453 1.80078C23.0391 1.27344 26.9355 2.91235 27.3574 3.09814C29.9941 1.29248 33.1836 0.234619 36.6133 0.234619H39.3867C42.8164 0.234619 46.0059 1.29248 48.6426 3.09814C49.0645 2.91211 52.9609 1.27344 58.0547 1.80078ZM11.0625 21.5452C12.002 18.877 14.2383 13.8196 18.4688 10.6724C18.123 7.58521 18.6992 5.42676 19.3496 4.05249C19.1543 4.05933 18.9551 4.06958 18.7539 4.0835C18.5332 4.09863 18.3105 4.11841 18.084 4.14331C12.1133 4.79761 7.18946 8.45093 3.4336 15.0063L11.0625 21.5452ZM39.3867 2.57837H36.6133C28.8477 2.57837 22.5313 8.89551 22.5313 16.6604V18.262H53.4688V16.6604C53.4688 8.89551 47.1523 2.57837 39.3867 2.57837ZM21.9902 4.15894C21.5332 4.7561 20.6094 6.34155 20.7148 9.29956C21.2129 9.05493 21.7344 8.83643 22.2773 8.65063C23.0723 7.23291 24.0723 5.94458 25.2344 4.82544C24.459 4.58887 23.3379 4.31201 21.9902 4.15894ZM38 52.9299C40.4121 52.9299 42.375 50.9673 42.375 48.5549V43.5876C40.9824 43.9731 39.5137 44.1799 38 44.1799C36.4863 44.1799 35.0176 43.9731 33.625 43.5876V48.5549C33.625 50.9673 35.5879 52.9299 38 52.9299ZM54.6406 26.5823C55.5234 26.5823 56.2422 25.8638 56.2422 24.9807C56.2422 24.7231 56.1816 24.4795 56.0723 24.2637C55.8086 23.7395 55.2656 23.3792 54.6406 23.3792C54.2324 23.3792 53.8711 23.1697 53.6621 22.8521C53.5391 22.667 53.4688 22.4453 53.4688 22.2073V20.6057H22.5313V22.2073C22.5313 22.8545 22.0059 23.3792 21.3594 23.3792C20.4766 23.3792 19.7578 24.0977 19.7578 24.9807C19.7578 25.8638 20.4766 26.5823 21.3594 26.5823H22.7461C23.1328 26.5823 23.4766 26.7703 23.6914 27.0601C23.834 27.2544 23.918 27.4944 23.918 27.7542C23.918 35.519 30.2344 41.8362 38 41.8362C45.7656 41.8362 52.082 35.519 52.082 27.7542C52.082 27.1069 52.6074 26.5823 53.2539 26.5823H54.6406ZM53.7227 8.65039C54.2656 8.83643 54.7852 9.05469 55.2852 9.29907C55.3848 6.34058 54.4531 4.74292 54.0078 4.15601C52.6563 4.30859 51.5371 4.58545 50.7617 4.82275C51.9277 5.94238 52.9258 7.23169 53.7227 8.65039ZM57.5313 10.6724C61.7617 13.8196 63.998 18.877 64.9375 21.5452L72.5664 15.0066C68.7891 8.41162 63.8301 4.75464 57.8125 4.13232C57.418 4.09131 57.0293 4.06616 56.6504 4.05298C57.3008 5.427 57.875 7.58545 57.5313 10.6724ZM29.8945 24.9807C29.8945 24.3335 30.4199 23.8088 31.0664 23.8088C31.7129 23.8088 32.2383 24.3335 32.2383 24.9807V26.3674C32.2383 27.0146 31.7129 27.5393 31.0664 27.5393C30.8398 27.5393 30.627 27.4746 30.4473 27.3625C30.1172 27.1558 29.8945 26.7874 29.8945 26.3674V24.9807ZM43.7617 24.9807C43.7617 24.3335 44.2871 23.8088 44.9336 23.8088C45.5801 23.8088 46.1055 24.3335 46.1055 24.9807V26.3674C46.1055 27.0146 45.5801 27.5393 44.9336 27.5393C44.2871 27.5393 43.7617 27.0146 43.7617 26.3674V24.9807ZM43.0664 32.5569C42.6543 32.0569 41.916 31.9849 41.416 32.3958C40.5508 33.1077 39.3047 33.5159 38 33.5159C36.6953 33.5159 35.4492 33.1077 34.584 32.3958C34.084 31.9849 33.3457 32.0571 32.9336 32.5569C32.5234 33.0569 32.5957 33.7954 33.0957 34.2063C34.3926 35.2725 36.1348 35.8596 38 35.8596C39.8652 35.8596 41.6074 35.2725 42.9043 34.2063C43.1621 33.9939 43.3066 33.6938 43.3281 33.3845C43.3496 33.0955 43.2637 32.7983 43.0664 32.5569Z" fill="black"/>
</svg>
