<svg width="90" height="83" viewBox="0 0 90 83" fill="none" xmlns="http://www.w3.org/2000/svg">
<path fill-rule="evenodd" clip-rule="evenodd" d="M86.332 54.6902L76.002 50.5588C75.9473 50.5366 75.8945 50.5081 75.8438 50.4807C82.9766 48.8574 86.3555 46.1431 86.5059 46.0203C86.6211 45.926 86.7168 45.8147 86.793 45.6917C86.8652 45.5732 86.918 45.4441 86.9512 45.3091C86.9707 45.2332 86.9824 45.1553 86.9863 45.0764C86.9883 45.0203 86.9883 44.9634 86.9844 44.9062L86.9746 44.814C86.959 44.7095 85.4824 34.2432 85.4824 23.9126C85.4824 14.0496 77.457 6.02539 67.5938 6.02539C57.7305 6.02539 49.707 14.0493 49.707 23.9126C49.707 26.6152 49.584 29.9207 49.3848 33.0498L46.5059 34.4888L38.0586 30.2649L37.9844 30.2334C38.1484 29.7515 38.291 29.2588 38.4082 28.7566C38.4727 28.4792 38.5293 28.199 38.5762 27.9163C38.6523 27.4661 38.709 27.0088 38.7441 26.5457C40.5117 25.9995 41.7988 24.3506 41.7988 22.4065C41.7988 22.1042 41.7676 21.8091 41.709 21.5242C41.6602 21.2856 41.5898 21.0542 41.502 20.8315C41.3535 20.4519 41.1523 20.0984 40.9082 19.7795C40.7266 19.5417 40.5195 19.3232 40.293 19.1277V10.356C40.293 7.93286 39.0684 5.66553 37.0605 4.30322C36.3809 1.77563 34.1094 0 31.4434 0H19.3926C12.8516 0 7.53125 5.32153 7.53125 11.8623V19.1274C6.60938 19.9221 6.02539 21.0969 6.02539 22.4062C6.02539 24.3503 7.3125 25.9995 9.08008 26.5454C9.41211 30.9714 11.6934 34.8604 15.0625 37.363V41.0071L4.16016 44.2778C1.67188 45.0244 0 47.271 0 49.8687V64.5818C0 64.9626 0.162109 65.3057 0.419922 65.5464C0.484375 65.6074 0.556641 65.6619 0.632812 65.7087C0.699219 65.7493 0.769531 65.7842 0.84375 65.8125C0.921875 65.843 1.00391 65.866 1.08984 65.8809C1.16406 65.8936 1.24023 65.9001 1.31836 65.9001H1.50586V81.1509C1.50586 81.8792 2.0957 82.4692 2.82422 82.4692C3.55273 82.4692 4.14258 81.8792 4.14258 81.1509V65.9001H9.03711V81.1509C9.03711 81.8792 9.62891 82.4692 10.3555 82.4692C11.084 82.4692 11.6738 81.8792 11.6738 81.1509V58.4187C11.6738 57.2625 11.3359 56.1428 10.6934 55.1809L8.44141 51.8005C8.03711 51.1946 7.21875 51.0312 6.61328 51.4348C6.00586 51.8386 5.84375 52.6572 6.24609 53.2632L8.5 56.6436C8.85156 57.1709 9.03711 57.7847 9.03711 58.4187V63.2634H2.82422H2.63672V49.8687C2.63672 48.4443 3.55273 47.2126 4.91797 46.8032L9.44336 45.4456C11.0195 52.0447 17.0059 56.8625 23.9121 56.8625C26.3945 56.8625 28.8047 56.2507 30.9629 55.0862C31.75 56.1624 33.0234 56.8625 34.457 56.8625H34.6445V57.0505C34.6445 61.4702 37.0762 65.3303 40.6699 67.3711V69.5212C40.6699 69.6023 40.6172 69.6738 40.541 69.6997L35.623 71.3389C33.2363 72.1348 31.6309 74.3601 31.6309 76.8767V81.1509C31.6309 81.8792 32.2227 82.4692 32.9492 82.4692C33.6777 82.4692 34.2676 81.8792 34.2676 81.1509V76.8767C34.2676 75.4968 35.1484 74.2766 36.457 73.8406L37.9023 73.3584C39.8164 76.2117 43.0332 77.9507 46.5059 77.9507C49.9824 77.9507 53.1973 76.2126 55.1094 73.3584L56.5566 73.8406C57.8652 74.2769 58.7441 75.4968 58.7441 76.8767V81.1509C58.7441 81.8792 59.334 82.4692 60.0625 82.4692C60.791 82.4692 61.3809 81.8792 61.3809 81.1509V76.8767C61.3809 74.3601 59.7773 72.1348 57.3906 71.3391L52.4727 69.6997C52.4551 69.6941 52.4395 69.6865 52.4258 69.677C52.4121 69.668 52.4004 69.6572 52.3906 69.6453C52.3789 69.6316 52.3691 69.616 52.3613 69.5994C52.3496 69.5754 52.3438 69.5491 52.3438 69.5215V67.3711C55.0332 65.8433 57.0703 63.2952 57.9258 60.2554C60.416 62.8623 63.8965 64.3943 67.5938 64.3943C73.4316 64.3943 78.5547 60.6204 80.3184 55.1257L85.3516 57.1387C86.5742 57.6274 87.3633 58.7939 87.3633 60.1099V66.2761H87.1758H82.4688V64.582C82.4688 63.854 81.8789 63.2637 81.1504 63.2637C81.0293 63.2637 80.9141 63.2798 80.8027 63.3101C80.7266 63.3308 80.6543 63.3579 80.584 63.3911C80.5332 63.4155 80.4844 63.4431 80.4355 63.4736C80.0723 63.7085 79.832 64.1172 79.832 64.582V81.1511C79.832 81.8792 80.4219 82.4695 81.1504 82.4695C81.8789 82.4695 82.4688 81.8792 82.4688 81.1511V68.9131H85.8574V81.1511C85.8574 81.8792 86.4473 82.4695 87.1758 82.4695C87.9043 82.4695 88.4941 81.8792 88.4941 81.1511V68.9131H88.6816C88.877 68.9131 89.0684 68.8696 89.2422 68.7883C89.291 68.7651 89.3398 68.739 89.3848 68.7097C89.4355 68.6782 89.4824 68.6431 89.5293 68.6045L89.6133 68.5269C89.8613 68.2795 90 67.9443 90 67.5947V60.1099C90 57.7092 88.5605 55.5818 86.332 54.6902ZM52.3438 23.9126C52.3438 15.5032 59.1855 8.66187 67.5938 8.66187C76.0039 8.66187 82.8457 15.5032 82.8457 23.9126C82.8457 32.7654 83.9102 41.7146 84.2578 44.3875C83.0762 45.1604 80.0508 46.8628 74.9375 47.9814V45.8833C75.6387 45.4866 76.3086 45.0334 76.9395 44.5242C79.5332 42.4272 81.3672 39.4905 82.0996 36.2549C82.3457 35.1768 82.4688 34.0649 82.4688 32.9504C82.4688 25.4988 77.0801 24.429 71.8691 23.3943C68.5527 22.7361 65.123 22.0552 62.3926 19.8708C61.998 19.5542 61.4551 19.4924 60.998 19.7122C60.541 19.9316 60.252 20.3933 60.252 20.9004C60.252 20.9353 60.1934 24.4043 55.2246 25.6465C54.5176 25.8232 54.0879 26.5388 54.2656 27.2454C54.4414 27.9519 55.1582 28.3809 55.8633 28.2046C60.0234 27.1648 61.7207 24.8318 62.4121 23.0789C65.2715 24.7729 68.4727 25.4087 71.3555 25.9807C76.9258 27.0867 79.832 27.8989 79.832 32.9507C79.832 33.8691 79.7305 34.7847 79.5293 35.6716C78.9258 38.332 77.416 40.7476 75.2812 42.4736C73.084 44.2498 70.4258 45.1885 67.5938 45.1885C65.0137 45.1885 62.5566 44.3967 60.4727 42.9006C59.709 40.8162 58.4805 38.9089 56.8633 37.3374V31.4443C56.8633 30.9873 56.625 30.563 56.2383 30.3228C55.8496 30.0828 55.3633 30.0608 54.9551 30.2651L52.1074 31.6882C52.2637 28.9426 52.3438 26.3323 52.3438 23.9126ZM54.2266 33.5771V38.3484L49.4551 35.9629L54.2266 33.5771ZM38.7871 33.5771L43.5586 35.9629L38.7871 38.3484V33.5771ZM31.6309 48.0129V49.2649C30.6875 50.0801 30.125 51.2729 30.125 52.5315C28.248 53.6409 26.1152 54.2258 23.9121 54.2258C18.1777 54.2258 13.2168 50.1902 11.9746 44.686L15.2324 43.709C16.0352 47.7673 19.6211 50.8374 23.9121 50.8374C27.3203 50.8374 30.2812 48.9009 31.7598 46.0718C31.6758 46.7119 31.6309 47.3601 31.6309 48.0129ZM17.6992 41.9856V38.9316C19.5918 39.8054 21.6953 40.2935 23.9121 40.2935C26.1289 40.2935 28.2344 39.8052 30.125 38.9319V41.9875C30.125 45.4133 27.3379 48.2004 23.9121 48.2004C20.4922 48.2004 17.709 45.4226 17.6992 42.0044V41.9856ZM23.9121 37.6567C17.1641 37.6567 11.6738 32.167 11.6738 25.4187C11.6738 24.6907 11.084 24.1003 10.3555 24.1003C9.42188 24.1003 8.66211 23.3403 8.66211 22.4062C8.66211 21.4722 9.42188 20.7122 10.3555 20.7122H13.3691C13.9355 20.7122 14.4395 20.3491 14.6191 19.8105L15.8301 16.1804C18.8594 16.1121 28.25 15.686 33.5391 13.0417C33.873 12.875 34.1055 12.5867 34.209 12.2576C34.3066 11.9429 34.2891 11.5911 34.1289 11.2729C34.0176 11.0493 33.8496 10.8713 33.6523 10.7471C33.502 10.6523 33.334 10.5889 33.1582 10.5605C32.8965 10.5181 32.6172 10.5549 32.3613 10.6833C26.6855 13.5205 14.9922 13.5566 14.875 13.5566C14.3066 13.5569 13.8027 13.9199 13.623 14.4583L12.418 18.0754H10.3555L10.168 18.0803V11.8623C10.168 6.77539 14.3066 2.63672 19.3945 2.63672H31.4434C33.0176 2.63672 34.3418 3.77148 34.5898 5.33447C34.6523 5.73169 34.8926 6.07837 35.2441 6.27588C36.7324 7.11548 37.6562 8.67871 37.6562 10.356V18.0798L37.4688 18.0752H35.9629C35.2344 18.0752 34.6445 18.6655 34.6445 19.3936C34.6445 20.1216 35.2344 20.7119 35.9629 20.7119H37.4688C38.4023 20.7119 39.1641 21.4719 39.1641 22.406C39.1641 23.3403 38.4043 24.1003 37.4688 24.1003C36.7402 24.1003 36.1504 24.6907 36.1504 25.4187C36.1504 32.1667 30.6602 37.6567 23.9121 37.6567ZM32.7617 41.9878V37.363C34.0742 36.3887 35.2207 35.2051 36.1504 33.8601V37.3372C34.6738 38.7705 33.5234 40.4829 32.752 42.3545L32.7598 42.114L32.7617 41.9878ZM52.4785 72.4814C51.0273 74.2544 48.8477 75.3137 46.5059 75.3137C44.168 75.3137 41.9863 74.2537 40.5352 72.4812L41.375 72.2012C42.5293 71.8162 43.3066 70.7393 43.3066 69.5215V68.4707C43.707 68.583 44.1152 68.6753 44.5312 68.7461C44.7168 68.7776 44.9043 68.8049 45.0938 68.8276L45.377 68.8586C45.748 68.8945 46.125 68.9131 46.5059 68.9131C47.6152 68.9131 48.6875 68.7566 49.707 68.4707V69.5215C49.707 70.739 50.4824 71.8159 51.6387 72.2009L52.4785 72.4814ZM57.0508 54.2258C56.3223 54.2258 55.7324 54.8162 55.7324 55.5442V56.855V56.8894V57.0505C55.7324 62.1375 51.5938 66.2761 46.5059 66.2761C41.4199 66.2761 37.2812 62.1375 37.2812 57.0505V55.5442C37.2812 55.2834 37.2051 55.0403 37.0742 54.8357C36.9707 54.6719 36.832 54.5327 36.668 54.429C36.4629 54.3003 36.2207 54.2258 35.9629 54.2258H34.457C33.5215 54.2258 32.7617 53.4658 32.7617 52.5317C32.7617 52.2585 32.8281 51.9973 32.9492 51.7644C33.0098 51.6484 33.084 51.5396 33.1719 51.4397C33.2344 51.3674 33.3047 51.3 33.3789 51.238C33.4512 51.179 33.5293 51.1248 33.6133 51.0764C33.7324 51.0071 33.8359 50.9194 33.9258 50.8203C37.1836 50.7258 47.748 50.1125 54.6914 46.145C55.0625 45.9331 55.291 45.5684 55.3457 45.1753C55.3828 44.8984 55.332 44.6077 55.1836 44.3462C54.9688 43.9712 54.5977 43.7415 54.1992 43.6919C54.0469 43.6729 53.8926 43.6802 53.7402 43.7156C53.6172 43.7439 53.498 43.7903 53.3848 43.8555C47.3008 47.3311 37.7441 48.0271 34.2695 48.166V48.0129C34.2695 45.5608 35.0117 43.1863 36.3574 41.1843C36.4102 41.2686 36.4727 41.3472 36.543 41.4182C36.6113 41.4878 36.6895 41.55 36.7754 41.603C36.9883 41.7336 37.2285 41.7998 37.4688 41.7998C37.6699 41.7998 37.873 41.7537 38.0586 41.6606L46.5059 37.4365L54.9551 41.6606C55.0586 41.7126 55.168 41.75 55.2793 41.7729C55.3672 41.7908 55.457 41.7998 55.5449 41.7998C55.6055 41.7998 55.666 41.7957 55.7266 41.7874C55.9043 41.7625 56.0781 41.7007 56.2383 41.603C56.4102 41.4958 56.5508 41.3508 56.6562 41.1843C58.002 43.1863 58.7441 45.5608 58.7441 48.0129V49.937C58.7441 50.0742 58.7656 50.2085 58.8047 50.3357C58.9023 50.6433 59.1133 50.9094 59.4004 51.0764C59.7188 51.262 59.9609 51.5308 60.1035 51.8457C60.1992 52.0574 60.252 52.29 60.252 52.5317C60.252 53.4658 59.4902 54.2258 58.5566 54.2258H57.0508ZM67.5938 61.7573C63.9453 61.7573 60.5586 59.8989 58.5879 56.8618C60.9609 56.8455 62.8867 54.9097 62.8867 52.5317C62.8867 51.2732 62.3262 50.0801 61.3809 49.2651V48.0129C61.3809 47.4824 61.3535 46.9546 61.2969 46.4319C63.252 47.3484 65.3867 47.825 67.5938 47.825C69.2012 47.825 70.791 47.5586 72.3008 47.0552V48.9858C72.3008 50.7671 73.3691 52.3455 75.0234 53.0071L77.8672 54.144C76.5039 58.6492 72.3438 61.7573 67.5938 61.7573ZM16.5684 22.4062C16.5684 21.6782 17.1582 21.0879 17.8867 21.0879C18.6152 21.0879 19.2051 21.6782 19.2051 22.4062V23.9126C19.2051 24.4221 18.916 24.864 18.4941 25.0835C18.3125 25.1777 18.1055 25.231 17.8867 25.231C17.1582 25.231 16.5684 24.6406 16.5684 23.9126V22.4062ZM25.9023 29.1072C26.3613 28.5415 27.1895 28.4551 27.7559 28.9136C28.3223 29.3723 28.4082 30.2024 27.9492 30.7681C26.9219 32.0354 25.4512 32.7622 23.9121 32.7622C22.375 32.7622 20.9043 32.0354 19.877 30.7681C19.418 30.2024 19.5039 29.3723 20.0703 28.9136C20.332 28.7009 20.6504 28.6057 20.9629 28.6208C21.1172 28.6284 21.2695 28.6628 21.4121 28.7234C21.6055 28.8047 21.7832 28.9333 21.9238 29.1072C22.1836 29.428 22.4844 29.6785 22.8125 29.8506C23.1562 30.0308 23.5293 30.1255 23.9121 30.1255C24.6621 30.1255 25.3691 29.7639 25.9023 29.1072ZM29.9375 21.0879C29.209 21.0879 28.6191 21.6782 28.6191 22.4062V23.9126C28.6191 24.6406 29.209 25.231 29.9375 25.231C30.666 25.231 31.2559 24.6406 31.2559 23.9126V22.4062C31.2559 21.6782 30.666 21.0879 29.9375 21.0879ZM69.584 36.6384C70.041 36.0728 70.8711 35.9863 71.4375 36.4448C72.0039 36.9036 72.0898 37.7336 71.6309 38.2993C70.6035 39.5667 69.1328 40.2935 67.5938 40.2935C66.0566 40.2935 64.5859 39.5669 63.5586 38.2993C63.0996 37.7336 63.1855 36.9036 63.752 36.4448C64.3164 35.9863 65.1465 36.073 65.6055 36.6384C66.1387 37.2949 66.8438 37.6567 67.5938 37.6567C68.3438 37.6567 69.0508 37.2949 69.584 36.6384ZM61.5684 28.6191C60.8398 28.6191 60.25 29.2095 60.25 29.9375V31.4438C60.25 32.1719 60.8398 32.7622 61.5684 32.7622C62.2969 32.7622 62.8867 32.1719 62.8867 31.4438V29.9375C62.8867 29.5803 62.7441 29.2563 62.5137 29.0188C62.2754 28.7722 61.9395 28.6191 61.5684 28.6191ZM72.3008 29.9375C72.3008 29.2095 72.8906 28.6191 73.6191 28.6191C73.8477 28.6191 74.0625 28.677 74.25 28.7791C74.3613 28.8398 74.4629 28.9165 74.5527 29.0059C74.6816 29.1357 74.7852 29.2927 74.8516 29.4675C74.9082 29.6135 74.9375 29.772 74.9375 29.9375V31.4438C74.9375 32.1719 74.3477 32.7622 73.6191 32.7622C72.8906 32.7622 72.3008 32.1719 72.3008 31.4438V29.9375ZM48.4961 59.2327C48.9531 58.667 49.7832 58.5806 50.3496 59.0391C50.9141 59.4978 51.002 60.3281 50.543 60.8936C49.5156 62.1609 48.0449 62.8877 46.5059 62.8877C44.9688 62.8877 43.498 62.1606 42.4707 60.8936C42.0117 60.3279 42.0977 59.4978 42.6641 59.0391C43.2285 58.5806 44.0586 58.6672 44.5176 59.2327C45.0508 59.8894 45.7578 60.251 46.5059 60.251C47.2559 60.251 47.9629 59.8894 48.4961 59.2327ZM42.0117 55.3623C42.7402 55.3623 43.3301 54.772 43.3301 54.0439C43.3301 53.8147 43.2715 53.5991 43.168 53.4114C42.9453 53.0027 42.5117 52.7256 42.0117 52.7256C41.2832 52.7256 40.6934 53.3159 40.6934 54.0439C40.6934 54.772 41.2832 55.3623 42.0117 55.3623ZM52.2949 54.0439C52.2949 54.772 51.7051 55.3623 50.9766 55.3623C50.248 55.3623 49.6582 54.772 49.6582 54.0439C49.6582 53.6555 49.8262 53.3064 50.0938 53.0652C50.3262 52.854 50.6367 52.7256 50.9766 52.7256C51.7051 52.7256 52.2949 53.3159 52.2949 54.0439Z" fill="black"/>
</svg>
