<svg width="91" height="91" viewBox="0 0 91 91" fill="none" xmlns="http://www.w3.org/2000/svg">
<path fill-rule="evenodd" clip-rule="evenodd" d="M14.7076 24.0041H8.36261C4.24241 24.0298 0.725522 21.0325 0.097761 16.9603C-0.53 12.8881 1.92095 8.97088 5.85761 7.75456C6.08985 4.61234 8.06673 1.86664 10.973 0.649722C13.8793 -0.567201 17.2228 -0.0492219 19.6246 1.99006C22.1185 0.649682 25.0805 0.492541 27.7022 1.56153C30.3239 2.63052 32.3315 4.81403 33.1771 7.51606C33.2017 7.51606 33.2262 7.51311 33.251 7.51013C33.2761 7.50711 33.3014 7.50406 33.3271 7.50406C36.8576 7.50018 39.8181 10.1691 40.1791 13.6811C43.3478 14.7749 45.2591 18.0015 44.6958 21.306C44.1325 24.6105 41.2602 27.0217 37.9081 27.0041H20.3956C18.1205 27.0048 15.9918 25.8821 14.7076 24.0041ZM37.1911 14.7071C37.2026 14.5909 37.2081 14.4743 37.2076 14.3576C37.1841 12.7414 36.1661 11.3073 34.6482 10.7519C33.1304 10.1964 31.4272 10.6348 30.3661 11.8541C29.8575 12.452 28.9738 12.5567 28.3396 12.0941C27.0022 11.1195 25.2564 10.9046 23.7226 11.5258C22.1888 12.1469 21.0845 13.516 20.8021 15.1466C20.701 15.7618 20.2298 16.2503 19.6186 16.3736C17.6626 16.7524 16.3186 18.5609 16.52 20.5431C16.7215 22.5253 18.4018 24.0265 20.3941 24.0041H37.9081C39.9362 24.0174 41.6272 22.456 41.7753 20.4333C41.9233 18.4106 40.4775 16.6196 38.4691 16.3376C37.6759 16.2228 37.1131 15.5047 37.1911 14.7071ZM8.5762 9.841C8.33814 10.1604 7.98283 10.3719 7.58861 10.4291C4.81589 10.8154 2.8187 13.287 3.02305 16.079C3.2274 18.8711 5.56319 21.0255 8.36261 21.0041H13.5946C13.5473 20.7217 13.5182 20.4366 13.5076 20.1506C13.5189 17.2566 15.3395 14.6789 18.0631 13.7006C18.7334 11.5019 20.3393 9.71076 22.452 8.80545C24.5648 7.90014 26.9694 7.97281 29.0236 9.00406C29.4117 8.70417 29.8312 8.44717 30.2746 8.23756C29.3725 5.62107 26.9102 3.86469 24.1426 3.86356C22.7641 3.86338 21.4205 4.29742 20.3026 5.10406C19.6722 5.56188 18.7963 5.46086 18.2866 4.87156C17.2583 3.68632 15.7667 3.00508 14.1976 3.00406C11.2539 2.99492 8.85831 5.37038 8.84261 8.31406C8.83784 8.45174 8.84285 8.58959 8.85761 8.72656C8.9155 9.12067 8.81426 9.52162 8.5762 9.841ZM62.2308 2.30301C62.383 1.93425 62.676 1.64136 63.0447 1.4891C63.4128 1.33523 63.8271 1.33433 64.1958 1.48662C64.5646 1.63891 64.8575 1.93183 65.0098 2.3006L66.1573 5.0726C66.4758 5.83931 66.1125 6.71907 65.3457 7.0376C64.579 7.35613 63.6993 6.99281 63.3807 6.2261L62.2332 3.4541C62.0794 3.086 62.0785 2.67177 62.2308 2.30301ZM80.2087 15.487C78.2919 10.8588 73.3727 8.22924 68.4596 9.20641C63.5465 10.1836 60.0078 14.4953 60.0078 19.5047C60.0078 24.5141 63.5465 28.8258 68.4596 29.803C73.3727 30.7802 78.2919 28.1506 80.2087 23.5225C81.2818 20.9514 81.2818 18.058 80.2087 15.487ZM77.4367 22.375C76.0671 25.6803 72.5534 27.558 69.0443 26.8598C65.5353 26.1615 63.008 23.0818 63.008 19.504C63.008 15.9261 65.5353 12.8464 69.0443 12.1482C72.5534 11.4499 76.0671 13.3276 77.4367 16.633C78.2051 18.4698 78.2051 20.5381 77.4367 22.375ZM84.0288 76.0977C85.1974 77.3202 86.8166 78.0094 88.5078 78.0042C89.3362 78.0042 90.0078 78.6757 90.0078 79.5042C90.0078 80.3326 89.3362 81.0042 88.5078 81.0042C86.1195 81.0098 83.8242 80.0787 82.1148 78.4107C80.9432 77.193 79.3263 76.5049 77.6366 76.5049C75.9468 76.5049 74.3299 77.193 73.1583 78.4107C71.449 80.0779 69.1545 81.0089 66.7668 81.0042C64.7599 81.0409 62.8045 80.3678 61.2453 79.1037C61.2273 79.0902 61.2078 79.0782 61.1913 79.0632C60.9048 78.8427 60.6318 78.6222 60.3768 78.4107C59.2047 77.1928 57.5873 76.5047 55.8971 76.5047C54.2068 76.5047 52.5894 77.1928 51.4173 78.4107C47.856 81.8684 42.1911 81.8684 38.6298 78.4107C37.4572 77.1927 35.8393 76.5044 34.1486 76.5044C32.4578 76.5044 30.8399 77.1927 29.6673 78.4107C29.3838 78.6417 29.0838 78.8832 28.7673 79.1247L28.7448 79.1412C27.1939 80.3824 25.2574 81.0415 23.2713 81.0042C20.882 81.0081 18.5859 80.0773 16.8738 78.4107C15.7001 77.1923 14.0813 76.504 12.3896 76.504C10.6979 76.504 9.07898 77.1923 7.90531 78.4107C6.19376 80.0781 3.89732 81.0091 1.50781 81.0042C0.679385 81.0042 0.00781251 80.3326 0.00781251 79.5042C0.00781251 78.6757 0.679385 78.0042 1.50781 78.0042C3.2004 78.0098 4.82114 77.3206 5.99131 76.0977C9.55595 72.6396 15.2232 72.6396 18.7878 76.0977C19.9582 77.3203 21.5788 78.0094 23.2713 78.0042C23.5369 78.0049 23.8024 77.9904 24.0663 77.9607C21.7001 76.2683 20.5621 73.3344 21.1683 70.4892C21.1413 70.4892 21.1147 70.4929 21.0881 70.4967C21.0614 70.5004 21.0348 70.5042 21.0078 70.5042H10.5078C8.8628 70.5043 7.28989 69.829 6.15699 68.6363C5.0241 67.4436 4.43059 65.838 4.51531 64.1952C4.74642 60.9384 7.4911 58.4352 10.7553 58.5042H17.9058C18.3032 58.5023 18.6841 58.3445 18.9663 58.0647L20.0373 56.9937C14.709 56.8776 10.4612 52.5046 10.4999 47.1752C10.5386 41.8458 14.8494 37.5349 20.1788 37.4962C25.5083 37.4575 29.8813 41.7053 29.9973 47.0337L31.0683 45.9627C31.3496 45.6814 31.5077 45.3 31.5078 44.9022V37.5042C31.5078 35.8608 32.1819 34.2894 33.3726 33.1567C34.5633 32.0241 36.1665 31.4295 37.8078 31.5117C41.0678 31.7389 43.5757 34.4845 43.5078 37.7517V48.0042C43.514 49.5956 42.8837 51.1235 41.7573 52.2477L39.0048 55.0002L48.8433 63.8502L61.5933 49.9422C63.7127 47.6576 67.2236 47.3637 69.6933 49.2642L83.1933 59.7642C85.7401 61.8153 86.1753 65.5281 84.1721 68.1127C82.1688 70.6973 78.4649 71.2018 75.8433 69.2472L66.6933 62.1417L64.0578 65.0202C66.6559 65.9207 68.5357 68.1938 68.9326 70.9147C69.3295 73.6356 68.1774 76.351 65.9448 77.9562C66.2176 77.9883 66.4921 78.0043 66.7668 78.0042C68.4574 78.0085 70.0758 77.3194 71.2443 76.0977C74.8039 72.6387 80.4692 72.6387 84.0288 76.0977ZM67.8453 51.6327C66.6098 50.6828 64.854 50.8311 63.7953 51.9747L52.3083 64.5042H60.4578L65.4108 59.0982C65.9381 58.5225 66.8188 58.4475 67.4358 58.9257L77.6658 66.8757C78.9756 67.8917 80.861 67.6537 81.8771 66.3439C82.8931 65.0342 82.6551 63.1487 81.3453 62.1327L67.8453 51.6327ZM13.5664 48.61C14.2315 51.7698 17.0288 54.0249 20.2578 54.0042C21.9875 54.0016 23.6495 53.3315 24.8973 52.1337L25.1373 51.8922C27.3624 49.5522 27.6329 45.9693 25.7844 43.3217C23.9359 40.6741 20.4791 39.6936 17.5157 40.9762C14.5524 42.2589 12.9013 45.4502 13.5664 48.61ZM8.33165 66.5731C8.89877 67.1686 9.68548 67.5052 10.5078 67.5042H21.0078C21.8009 67.5056 22.5618 67.1903 23.1213 66.6282L27.2523 62.4987C27.8113 61.9162 28.7327 61.8856 29.329 62.4298C29.9253 62.974 29.9789 63.8944 29.4498 64.5042H45.0753L35.8143 56.1747C35.5087 55.8994 35.3295 55.5106 35.3187 55.0994C35.3079 54.6882 35.4665 54.2906 35.7573 53.9997L39.6273 50.1297C40.1933 49.5675 40.5104 48.8019 40.5078 48.0042V37.7517C40.556 36.0922 39.3166 34.6762 37.6653 34.5042C36.8418 34.4622 36.0372 34.7599 35.4393 35.3277C34.8413 35.8932 34.5041 36.6811 34.5078 37.5042V44.9022C34.5109 46.094 34.0378 47.2377 33.1938 48.0792L27.3648 53.9067C27.2198 54.0647 27.0698 54.2147 26.9148 54.3567L21.0873 60.1857C20.2454 61.0323 19.0998 61.5071 17.9058 61.5042H10.7553C9.09294 61.4556 7.67546 62.6996 7.50781 64.3542C7.4667 65.1755 7.76452 65.9776 8.33165 66.5731ZM49.5078 76.0992C51.216 74.432 53.5094 73.5004 55.8963 73.5042C58.2825 73.5006 60.5752 74.4315 62.2833 76.0977L62.5578 76.3242C64.5497 75.8259 65.9624 74.057 66.0078 72.0042C65.9456 69.4628 63.8394 67.4505 61.2978 67.5042H28.7178C27.4665 67.4965 26.2613 67.9764 25.3578 68.8422C24.4968 69.6689 24.0094 70.8105 24.0078 72.0042C24.049 74.0656 25.4736 75.8407 27.4773 76.3272L27.7563 76.0992C31.3178 72.6405 36.9839 72.6405 40.5453 76.0992C41.7181 77.3168 43.336 78.0047 45.0266 78.0047C46.7172 78.0047 48.335 77.3168 49.5078 76.0992ZM84.0288 85.0975C85.1974 86.3201 86.8166 87.0093 88.5078 87.004C89.3362 87.004 90.0078 87.6756 90.0078 88.504C90.0078 89.3324 89.3362 90.004 88.5078 90.004C86.1195 90.0097 83.8242 89.0785 82.1148 87.4105C80.9432 86.1928 79.3263 85.5048 77.6366 85.5048C75.9468 85.5048 74.3299 86.1928 73.1583 87.4105C69.5987 90.8695 63.9334 90.8695 60.3738 87.4105C59.2017 86.1927 57.5843 85.5045 55.8941 85.5045C54.2038 85.5045 52.5864 86.1927 51.4143 87.4105C47.853 90.8682 42.1881 90.8682 38.6268 87.4105C37.4542 86.1925 35.8363 85.5043 34.1456 85.5043C32.4548 85.5043 30.8369 86.1925 29.6643 87.4105C26.102 90.8686 20.4361 90.8686 16.8738 87.4105C15.7001 86.1922 14.0813 85.5038 12.3896 85.5038C10.6979 85.5038 9.07898 86.1922 7.90531 87.4105C6.19376 89.078 3.89732 90.0089 1.50781 90.004C0.679385 90.004 0.00781251 89.3324 0.00781251 88.504C0.00781251 87.6756 0.679385 87.004 1.50781 87.004C3.2004 87.0096 4.82114 86.3204 5.99131 85.0975C9.55595 81.6395 15.2232 81.6395 18.7878 85.0975C19.9606 86.3151 21.5785 87.0031 23.2691 87.0031C24.9597 87.0031 26.5775 86.3151 27.7503 85.0975C31.3118 81.6388 36.9779 81.6388 40.5393 85.0975C41.7121 86.3151 43.33 87.0031 45.0206 87.0031C46.7112 87.0031 48.329 86.3151 49.5018 85.0975C53.0619 81.6384 58.7277 81.6384 62.2878 85.0975C63.4594 86.3152 65.0763 87.0033 66.7661 87.0033C68.4558 87.0033 70.0727 86.3152 71.2443 85.0975C74.8039 81.6386 80.4692 81.6386 84.0288 85.0975ZM75.6739 31.9765C74.9091 32.2937 74.5459 33.1705 74.8624 33.9355L76.0099 36.7075C76.3267 37.473 77.2041 37.8366 77.9696 37.5198C78.7351 37.2029 79.0987 36.3255 78.7818 35.56L77.6344 32.788C77.4821 32.4204 77.1899 32.1283 76.8222 31.9761C76.4545 31.8239 76.0414 31.8241 75.6739 31.9765ZM84.9409 15.1494C84.7589 15.2253 84.5637 15.2646 84.3664 15.2649H84.3604C83.6446 15.2653 83.0282 14.7599 82.8884 14.0578C82.7486 13.3557 83.1245 12.6526 83.7859 12.3789L86.5579 11.2299C87.3234 10.911 88.2025 11.2729 88.5215 12.0384C88.8404 12.8039 88.4784 13.683 87.713 14.0019L84.9409 15.1494ZM56.0752 23.8539L53.3032 25.0014C52.5377 25.3187 52.1744 26.1964 52.4917 26.9619C52.809 27.7273 53.6867 28.0907 54.4522 27.7734L57.2242 26.6244C57.7306 26.4269 58.0906 25.971 58.1652 25.4326C58.2397 24.8941 58.0172 24.3575 57.5835 24.0299C57.1497 23.7023 56.5727 23.6349 56.0752 23.8539ZM86.5631 27.7779L83.7911 26.6289V26.6244C83.2847 26.427 82.9247 25.971 82.8501 25.4326C82.7756 24.8942 82.9981 24.3575 83.4319 24.0299C83.8656 23.7023 84.4426 23.6349 84.9401 23.8539L87.7122 25.0059C88.4776 25.3232 88.8409 26.2009 88.5237 26.9664C88.2064 27.7318 87.3286 28.0952 86.5631 27.7779ZM57.224 12.379L54.458 11.23C53.6926 10.9127 52.8148 11.276 52.4976 12.0415C52.1803 12.8069 52.5436 13.6847 53.3091 14.002L56.0811 15.1495C56.5786 15.3684 57.1556 15.3011 57.5893 14.9734C58.023 14.6458 58.2456 14.1092 58.171 13.5708C58.0965 13.0324 57.7365 12.5764 57.23 12.379H57.224ZM77.635 6.22009C77.4031 6.78106 76.856 7.14699 76.249 7.14709H76.2445C75.7434 7.14721 75.2753 6.89707 74.9969 6.48039C74.7185 6.0637 74.6666 5.53551 74.8585 5.07259L76.0105 2.30659C76.3274 1.54112 77.2048 1.17746 77.9703 1.49434C78.7357 1.81121 79.0994 2.68862 78.7825 3.45409L77.635 6.22009ZM63.3807 32.7879L62.2332 35.5539C62.0282 36.0491 62.103 36.616 62.4293 37.0411C62.7557 37.4662 63.284 37.6849 63.8153 37.6149C64.3466 37.5448 64.8002 37.1966 65.0052 36.7014L66.1527 33.9294C66.4696 33.164 66.1059 32.2866 65.3405 31.9697C64.575 31.6528 63.6976 32.0165 63.3807 32.7819V32.7879Z" fill="black"/>
</svg>
