<svg width="90" height="90" viewBox="0 0 90 90" fill="none" xmlns="http://www.w3.org/2000/svg">
<path fill-rule="evenodd" clip-rule="evenodd" d="M87.3199 0.897929C87.5953 0.183573 88.3999 -0.171163 89.1128 0.105448C89.8277 0.381815 90.1812 1.18455 89.9058 1.89842C89.5132 2.91184 86.4195 11.2026 83.1363 20.4824C86.0093 22.1225 87.9527 25.2148 87.9527 28.7544C87.9527 34.0034 83.6832 38.2737 78.4332 38.2737C78.1812 38.2737 77.9292 38.2627 77.6812 38.2422C77.5171 38.2287 77.355 38.2112 77.1929 38.1899C77.0542 38.6467 76.9253 39.0835 76.8082 39.4892C73.9898 49.2759 70.0308 55.1692 65.6636 56.0837C63.5933 56.5176 61.5621 55.6706 60.23 54.0679C57.7164 51.041 57.3843 45.707 59.4078 40.7956C64.1617 29.247 66.0757 20.228 64.5269 16.6697C64.2105 15.9424 63.7749 15.4958 63.1597 15.2651C60.7203 14.3508 57.2574 17.1799 53.4117 23.2334C50.2281 28.2449 44.7398 39.7905 44.7398 39.7905C44.3824 40.4682 43.5445 40.729 42.8667 40.373C42.189 40.0168 41.9292 39.1787 42.2847 38.501L44.7437 33.8213C39.6675 31.6782 32.4253 31.6506 25.4273 33.8095C22.9488 34.5737 20.607 35.5764 18.441 36.7795C18.4605 37.0246 18.4253 37.268 18.3902 37.511L18.3843 37.5344C18.3648 37.6611 18.3453 37.7876 18.3335 37.914C18.2964 38.3095 18.2808 38.7077 18.2808 39.105C18.2808 46.4941 24.2925 52.5058 31.6832 52.5058C32.8179 52.5058 33.9449 52.3637 35.0328 52.0835L35.1617 52.0574L39.9761 42.8962C40.1714 42.5232 40.5132 42.2763 40.8941 42.1894C41.2046 42.1184 41.5425 42.1538 41.8472 42.3139C42.5249 42.6701 42.7867 43.5083 42.4292 44.186L25.9507 75.5478L35.8765 76.0991C36.4703 73.4685 38.5406 67.6636 45.4273 65.1584C46.3179 64.8349 47.2886 65.5166 47.2886 66.4614V76.0583C49.355 77.4106 55.9546 81.8388 61.6109 86.8667C62.4273 87.5935 62.0835 88.9829 61.0249 89.2478C60.8863 89.2822 58.0113 89.9883 54.1343 89.9883C53.5406 89.9883 52.9234 89.9717 52.2886 89.9336C46.2769 89.5727 41.4039 87.4214 38.1187 83.6929C35.8414 84.6833 30.0582 86.8874 23.6695 86.8877C21.8843 86.8877 20.0523 86.7156 18.2339 86.2961C10.8726 84.5974 5.19292 80.1238 2.24175 73.6987C-1.28169 66.0305 -0.621534 56.1748 4.00932 47.3342C7.90776 39.8906 15.4175 33.9953 24.6089 31.1601C32.3824 28.7627 40.2222 28.8445 45.9488 31.3227C46.8453 29.3467 48.7007 25.48 51.0718 21.747C55.8296 14.2575 60.2242 11.2031 64.1343 12.6692C65.4624 13.1672 66.4488 14.1411 67.0679 15.5627C69.6304 21.4441 64.9742 34.5578 61.9722 41.8513C60.0855 46.4326 60.8531 50.477 62.3628 52.2961C63.1363 53.2265 64.0562 53.5888 65.0953 53.3701C66.3003 53.1177 70.5171 51.3154 74.1441 38.7217C74.2613 38.3171 74.3882 37.8835 74.5249 37.4306C71.2203 35.9363 68.9136 32.6106 68.9136 28.7546C68.9136 23.5056 73.1851 19.2353 78.4332 19.2353C79.1617 19.2353 79.8687 19.32 80.5503 19.4753C83.8335 10.2007 86.9273 1.91453 87.3199 0.897929ZM33.5249 55.1728C32.9156 55.2422 32.3003 55.2788 31.6832 55.2788C22.7632 55.2788 15.5093 48.0234 15.5093 39.1054L15.5113 38.8586L15.5191 38.6028C11.6265 41.3152 8.49761 44.7397 6.4644 48.6211C2.23003 56.7063 1.59331 65.6482 4.76128 72.5412C7.38432 78.2497 12.2574 82.0718 18.857 83.595C27.8785 85.6772 37.7886 80.7978 37.8882 80.7483C38.482 80.4516 39.2027 80.6167 39.607 81.1428C44.4976 87.5 53.0933 87.5124 57.5289 87.0193C51.566 82.0769 45.2281 78.0276 45.1578 77.9822C44.7574 77.7275 44.5152 77.2864 44.5152 76.8127V68.6089C39.066 71.6333 38.4371 77.4128 38.4097 77.6821C38.3374 78.4216 37.691 78.9761 36.9527 78.936L23.6441 78.1968C23.5269 78.1902 23.4136 78.1692 23.3042 78.135C23.2203 78.1089 23.1402 78.0749 23.064 78.0339C22.9937 77.9961 22.9253 77.9519 22.8628 77.9021C22.7242 77.7925 22.605 77.6555 22.5152 77.4966C22.2828 77.0859 22.2749 76.5854 22.4937 76.1679L33.5249 55.1728ZM71.7964 29.9565C72.3648 33.1047 75.1246 35.501 78.4332 35.501C79.8316 35.501 81.1324 35.0732 82.2105 34.3415L71.7964 29.9565ZM84.2378 32.187C84.7066 31.3982 85.0191 30.5066 85.1304 29.5547L73.1832 24.5241C72.6031 25.2431 72.1675 26.0832 71.9195 27.0002L84.2378 32.187ZM75.7144 22.582L84.7496 26.386C83.7886 23.8308 81.3199 22.0075 78.4332 22.008C78.023 22.008 77.6207 22.0451 77.23 22.1162C76.7007 22.2124 76.1949 22.3703 75.7144 22.582ZM25.2925 38.3662C25.2925 36.3786 26.9097 34.7617 28.896 34.7617C30.8843 34.7617 32.5015 36.3786 32.5015 38.3662C32.5015 40.3535 30.8843 41.9704 28.896 41.9704C26.9097 41.9704 25.2925 40.3535 25.2925 38.3662ZM28.066 38.3662C28.066 38.8247 28.439 39.198 28.896 39.198C29.2242 39.198 29.5093 39.0063 29.646 38.7287C29.6988 38.6191 29.7281 38.4961 29.7281 38.3662C29.7281 37.9075 29.355 37.5344 28.896 37.5344C28.6578 37.5344 28.441 37.6362 28.2906 37.7986C28.1519 37.9472 28.066 38.147 28.066 38.3662ZM15.4996 55.0334C15.3355 54.9084 15.1519 54.8257 14.9624 54.7832C14.4507 54.6677 13.896 54.8496 13.5562 55.2947C12.7828 56.3074 11.3296 56.5022 10.3179 55.7297C9.30425 54.9568 9.10893 53.5039 9.88237 52.4909C10.3472 51.8823 10.23 51.0124 9.62065 50.5478C9.01323 50.0832 8.14214 50.2002 7.67925 50.8091C5.97807 53.0371 6.40776 56.2331 8.63628 57.9336C9.3687 58.4929 10.2046 58.8215 11.0582 58.9319C11.1714 58.9465 11.2867 58.9573 11.4019 58.9643C11.5054 58.9707 11.6089 58.9739 11.7124 58.9739C13.2457 58.9739 14.7613 58.2854 15.7593 56.9765C16.2242 56.3681 16.107 55.498 15.4996 55.0334ZM23.9078 61.9482C24.3726 61.3396 25.2417 61.2226 25.8511 61.6872C26.4585 62.1518 26.5757 63.0217 26.1109 63.6301C25.1128 64.9394 23.5972 65.6277 22.066 65.6277C20.9898 65.6277 19.9058 65.2886 18.9878 64.5874C16.7593 62.8869 16.3296 59.6909 18.0308 57.4626C18.4937 56.854 19.3648 56.737 19.9722 57.2016C20.5816 57.6662 20.6988 58.5361 20.2339 59.1448C19.4605 60.1577 19.6558 61.6106 20.6695 62.3833C21.6812 63.156 23.1343 62.9609 23.9078 61.9482ZM16.9976 66.1484C16.3882 65.6838 15.5191 65.801 15.0542 66.4096C14.6792 66.9001 14.1363 67.2156 13.5249 67.2981C12.9136 67.3791 12.3062 67.2192 11.816 66.845C10.8023 66.072 10.607 64.6194 11.3804 63.6062C11.8453 62.9975 11.7281 62.1277 11.1187 61.6631C10.5113 61.1985 9.64018 61.3154 9.17729 61.9243C7.47612 64.1523 7.90581 67.3484 10.1343 69.0486C11.0523 69.7502 12.1363 70.0888 13.2124 70.0888C14.7437 70.0888 16.2593 69.4006 17.2574 68.0915C17.3824 67.9292 17.4644 67.748 17.5074 67.561C17.6246 67.0473 17.4429 66.4887 16.9976 66.1484ZM38.7359 5.59324C40.0328 1.78099 44.1871 -0.266378 47.9996 1.03001C51.8101 2.32517 53.857 6.48045 52.5621 10.292C51.4292 13.6255 44.1226 19.1767 42.6695 20.2558C42.439 20.4267 42.1597 20.52 41.8765 20.5276C41.7144 20.532 41.5523 20.5083 41.396 20.4553C40.9644 20.3091 40.6343 19.9599 40.5093 19.522C40.0132 17.781 37.6031 8.92649 38.7359 5.59324ZM42.648 16.7741C45.6597 14.3813 49.3804 11.0381 49.9371 9.39988C50.7398 7.03587 49.4703 4.45848 47.107 3.65501C46.9019 3.58567 46.6929 3.53099 46.48 3.49119C46.0718 3.41477 45.6539 3.39451 45.2398 3.43284C43.4761 3.59519 41.9312 4.80882 41.3609 6.48558C40.8296 8.05125 41.6851 12.904 42.648 16.7741ZM73.1187 63.8718C69.7691 62.7864 60.9488 65.3215 59.2164 65.8408C58.3023 66.1142 57.9332 67.2529 58.5113 68.011C59.6109 69.4487 65.2652 76.6767 68.6148 77.7627C69.3609 78.0044 70.1167 78.1191 70.8609 78.1191C73.941 78.1191 76.8121 76.1528 77.8121 73.0691C79.0523 69.2395 76.9468 65.1137 73.1187 63.8718ZM75.1734 72.2141C74.4039 74.5896 71.8453 75.8952 69.4703 75.1252C67.8238 74.5915 64.4292 70.9197 61.9937 67.9409C65.8492 66.9243 70.689 65.9988 72.2632 66.5097C74.6382 67.2795 75.9449 69.8388 75.1734 72.2141ZM15.5269 12.9355C17.9546 15.4841 19.4878 24.5322 19.771 26.32C19.9195 27.2617 19.0523 28.0874 18.1187 27.8938C16.3472 27.5251 7.38432 25.5574 4.95464 23.0085C2.17729 20.0937 2.28862 15.4631 5.20464 12.6863C8.1187 9.90965 12.7496 10.021 15.5269 12.9355ZM7.11675 14.6936C5.30815 16.416 5.23979 19.2881 6.96245 21.0959C8.15581 22.3486 12.9371 23.8198 16.6753 24.7251C15.9507 20.9463 14.7124 16.1003 13.5191 14.8479C12.6304 13.9155 11.4371 13.4455 10.2398 13.4455C9.11675 13.4455 7.99175 13.8594 7.11675 14.6936Z" fill="black"/>
</svg>
