<svg width="90" height="54" viewBox="0 0 90 54" fill="none" xmlns="http://www.w3.org/2000/svg">
<path fill-rule="evenodd" clip-rule="evenodd" d="M76.9355 0.87085H24.6777C11.0547 0.885742 0.015625 11.926 0 25.5483V42.9675C0 43.7693 0.650391 44.4192 1.45117 44.4192H7.375C8.0918 49.4155 12.3711 53.1248 17.4199 53.1248C22.4668 53.1248 26.748 49.4155 27.4648 44.4192H62.5352C63.252 49.4155 67.5332 53.1248 72.5801 53.1248C77.6289 53.1248 81.9082 49.4155 82.625 44.4192H88.5488C89.3496 44.4192 90 43.7693 90 42.9675V13.9353C89.9922 6.72339 84.1484 0.879395 76.9355 0.87085ZM24.6777 16.8386H4.73438C5.95312 14.0701 7.73633 11.585 9.9668 9.5415C10.0312 9.55859 10.0957 9.57202 10.1621 9.58057H24.6777V16.8386ZM18.8711 25.5483H87.0977V41.5161H82.625C81.9082 36.5198 77.6289 32.8105 72.5801 32.8105C67.5332 32.8105 63.252 36.5198 62.5352 41.5161H27.4648C26.748 36.5198 22.4668 32.8105 17.4199 32.8105C12.3711 32.8105 8.0918 36.5198 7.375 41.5161H2.90234C2.91406 32.7014 10.0566 25.5588 18.8711 25.5483ZM79.8379 42.9675C79.8379 46.9758 76.5898 50.2256 72.5801 50.2256C68.5742 50.2207 65.3281 46.9744 65.3223 42.9675C65.3223 38.9595 68.5723 35.7095 72.5801 35.7095C76.5898 35.7095 79.8379 38.9595 79.8379 42.9675ZM24.6777 42.9675C24.6777 46.9758 21.4277 50.2256 17.4199 50.2256C13.4121 50.2207 10.166 46.9744 10.1621 42.9675C10.1621 38.9595 13.4102 35.7095 17.4199 35.7095C21.4277 35.7095 24.6777 38.9595 24.6777 42.9675ZM87.0977 22.645H18.8711C12.3789 22.6506 6.3457 25.9963 2.90234 31.5V25.5483C2.9082 23.585 3.18164 21.6313 3.71289 19.7417H26.1289C26.4668 19.7417 26.7773 19.6262 27.0234 19.4326C27.3633 19.167 27.5801 18.7539 27.5801 18.2903V8.12891C27.5801 7.32715 26.9316 6.67725 26.1289 6.67725H13.8613C17.1484 4.77637 20.8789 3.7749 24.6777 3.77417H76.9355C82.5449 3.78052 87.0898 8.32593 87.0977 13.9353V22.645ZM76.9355 42.9675C76.9355 40.5627 74.9863 38.6128 72.5801 38.6128C70.1758 38.6128 68.2266 40.5627 68.2266 42.9675C68.2266 45.3726 70.1758 47.3225 72.5801 47.3225C74.9863 47.3225 76.9355 45.3726 76.9355 42.9675ZM74.0332 42.9675C74.0332 43.7693 73.3828 44.4192 72.5801 44.4192C71.7793 44.4192 71.1289 43.7693 71.1289 42.9675C71.1289 42.166 71.7793 41.5161 72.5801 41.5161C73.043 41.5161 73.4551 41.7319 73.7207 42.0679C73.7734 42.1357 73.8203 42.2085 73.8613 42.2852C73.8926 42.3433 73.9199 42.4036 73.9434 42.4661C74.002 42.6223 74.0332 42.7913 74.0332 42.9675ZM17.418 38.6128C19.8242 38.6128 21.7734 40.5627 21.7734 42.9675C21.7734 45.3726 19.8242 47.3225 17.418 47.3225C15.0137 47.3225 13.0645 45.3726 13.0645 42.9675C13.0645 40.5627 15.0137 38.6128 17.418 38.6128ZM17.418 44.4192C18.2207 44.4192 18.8711 43.7693 18.8711 42.9675C18.8711 42.166 18.2207 41.5161 17.418 41.5161C16.6172 41.5161 15.9668 42.166 15.9668 42.9675C15.9668 43.7693 16.6172 44.4192 17.418 44.4192ZM43.5488 6.67749H30.4844C29.6816 6.67749 29.0332 7.32739 29.0332 8.12915V18.2903C29.0332 19.092 29.6816 19.7419 30.4844 19.7419H43.5488C43.7559 19.7419 43.9512 19.6987 44.1289 19.6206C44.2559 19.5649 44.373 19.4915 44.4785 19.4033C44.7969 19.137 45 18.7371 45 18.2903V8.12915C45 7.32739 44.3496 6.67749 43.5488 6.67749ZM42.0977 16.8389H31.9355V9.58081H42.0977V16.8389ZM47.9043 6.67749H60.9688C61.3301 6.67749 61.6602 6.81006 61.916 7.02954C62.0254 7.12305 62.1191 7.23242 62.1953 7.35376C62.3379 7.57812 62.4199 7.84399 62.4199 8.12915V18.2903C62.4199 19.092 61.7695 19.7419 60.9688 19.7419H47.9043C47.5059 19.7419 47.1445 19.5815 46.8828 19.3218C46.6172 19.0588 46.4531 18.6938 46.4531 18.2903V8.12915C46.4531 7.32739 47.1016 6.67749 47.9043 6.67749ZM49.3555 16.8389H59.5176V9.58081H49.3555V16.8389ZM78.3867 6.67749H65.3223C64.5195 6.67749 63.8711 7.32739 63.8711 8.12915V18.2903C63.8711 19.092 64.5195 19.7419 65.3223 19.7419H78.3867C78.7129 19.7419 79.0137 19.6345 79.2559 19.4531C79.6074 19.1885 79.8379 18.7661 79.8379 18.2903V8.12915C79.8379 7.32739 79.1875 6.67749 78.3867 6.67749ZM76.9355 16.8389H66.7734V9.58081H76.9355V16.8389ZM68.5391 30.8052C68.3418 30.5574 68.2246 30.2441 68.2246 29.9033C68.2246 29.1016 68.875 28.4517 69.6777 28.4517H84.1934C84.7246 28.4517 85.1895 28.7375 85.4414 29.1641C85.5703 29.3806 85.6445 29.6333 85.6445 29.9033C85.6445 30.7048 84.9941 31.355 84.1934 31.355H69.6777C69.2168 31.355 68.8066 31.1401 68.5391 30.8052ZM61.4336 30.9707C61.6934 31.2092 62.0391 31.355 62.418 31.355H65.3223C66.123 31.355 66.7734 30.7048 66.7734 29.9033C66.7734 29.1016 66.123 28.4517 65.3223 28.4517H62.418C61.6172 28.4517 60.9668 29.1016 60.9668 29.9033C60.9668 30.3254 61.1465 30.7056 61.4336 30.9707Z" fill="black"/>
</svg>
