<svg width="84" height="84" viewBox="0 0 84 84" fill="none" xmlns="http://www.w3.org/2000/svg">
<path d="M59.4839 28.3109L58.5851 25.3527C57.4434 21.9923 53.7937 20.1938 50.4334 21.3355C48.543 21.9778 47.0585 23.4623 46.4163 25.3527L45.5175 28.3109C44.7611 30.8057 44.6024 33.4434 45.0541 36.0109C45.466 38.1725 46.8384 40.0296 48.7837 41.0579L47.7771 63.5601C47.6423 64.816 48.0497 66.0699 48.8971 67.0069C50.7193 69.0001 53.8126 69.1387 55.8059 67.3164C55.9137 67.2179 56.0169 67.1147 56.1155 67.0069C56.9439 66.0965 57.3506 64.8794 57.2355 63.6539L56.2233 41.0551C58.1659 40.0262 59.536 38.1704 59.9473 36.0109C60.3989 33.4434 60.2402 30.8057 59.4839 28.3109ZM57.1893 35.5237C56.8862 37.0766 55.7795 38.3508 54.2843 38.8683C53.7167 39.0816 53.3512 39.636 53.3785 40.2417L54.4425 63.8751C54.4915 64.3386 54.3385 64.8008 54.0225 65.1435C53.1795 65.978 51.8218 65.978 50.9789 65.1435C50.6471 64.7732 50.4964 64.2748 50.5673 63.7827L51.6229 40.2417C51.6502 39.636 51.2846 39.0816 50.7171 38.8683C49.2219 38.3508 48.1152 37.0766 47.8121 35.5237C47.4376 33.3922 47.5695 31.2024 48.1971 29.1313L49.0959 26.1717C49.7913 24.2913 51.8794 23.3307 53.76 24.0262C54.7541 24.3938 55.5378 25.1777 55.9055 26.1717L56.8043 29.1313C57.4311 31.2026 57.5631 33.3922 57.1893 35.5237Z" fill="black"/>
<path d="M37.8008 21C37.0276 21 36.4008 21.6269 36.4008 22.4V34.4204L32.611 38.2102C32.3306 38.4895 32.1815 38.8747 32.2008 39.27L33.4258 63.77C33.455 64.2983 33.2632 64.8151 32.8966 65.1966C32.1303 65.9698 30.8822 65.9754 30.1088 65.2089C30.1046 65.2048 30.1006 65.2006 30.0966 65.1966C29.7298 64.8151 29.5382 64.2983 29.5674 63.77L30.8008 39.27C30.8204 38.8749 30.6718 38.4899 30.392 38.2102L26.6008 34.4204V22.4C26.6008 21.6269 25.9739 21 25.2008 21C24.4276 21 23.8008 21.6269 23.8008 22.4V35C23.8008 35.3714 23.9485 35.7273 24.211 35.9898L27.9714 39.7516L26.7772 63.6342C26.6501 66.2429 28.6619 68.4609 31.2707 68.5879C33.8794 68.715 36.0973 66.7032 36.2244 64.0945C36.2319 63.9412 36.2319 63.7877 36.2244 63.6344L35.0302 39.7518L38.7906 35.99C39.0531 35.7275 39.2008 35.3715 39.2008 35.0002V22.4002C39.2008 21.6269 38.5739 21 37.8008 21Z" fill="black"/>
<path d="M29.4 21C28.6269 21 28 21.6268 28 22.4V33.6C28 34.3731 28.6269 35 29.4 35C30.1732 35 30.8 34.3731 30.8 33.6V22.4C30.8 21.6268 30.1732 21 29.4 21Z" fill="black"/>
<path d="M33.5992 21C32.8261 21 32.1992 21.6268 32.1992 22.4V33.6C32.1992 34.3731 32.8261 35 33.5992 35C34.3724 35 34.9992 34.3731 34.9992 33.6V22.4C34.9992 21.6268 34.3724 21 33.5992 21Z" fill="black"/>
<path d="M42 0C18.8041 0 0 18.8041 0 42C0 65.1959 18.8041 84 42 84C65.1959 84 84 65.1959 84 42C83.9737 18.815 65.185 0.02625 42 0ZM42 81.2C20.3504 81.2 2.8 63.6496 2.8 42C2.8 20.3504 20.3504 2.8 42 2.8C63.6496 2.8 81.2 20.3504 81.2 42C81.1753 63.6393 63.6393 81.1753 42 81.2Z" fill="black"/>
<path d="M46.5436 68.28C46.4685 67.5105 45.7837 66.9475 45.0141 67.0226C44.9961 67.0243 44.978 67.0264 44.96 67.0289L44.9656 67.0275C42.9946 67.2564 41.0034 67.2564 39.0324 67.0275C38.2642 66.9374 37.5685 67.487 37.4784 68.2553C37.3883 69.0235 37.938 69.7192 38.7062 69.8093C40.8921 70.0646 43.1003 70.0646 45.2862 69.8093C46.0557 69.7344 46.6187 69.0496 46.5436 68.28Z" fill="black"/>
<path d="M63.4204 23.9596C62.9236 23.3672 62.0405 23.2897 61.4481 23.7867C61.4462 23.7883 61.4443 23.79 61.4422 23.7916C60.8512 24.29 60.776 25.173 61.2742 25.7642C69.7153 35.7847 69.0696 50.6018 59.7888 59.85C59.241 60.3958 59.2395 61.2825 59.7853 61.8303C60.3311 62.378 61.2178 62.3796 61.7656 61.8338C72.0796 51.559 72.7988 35.0947 63.4204 23.9596Z" fill="black"/>
<path d="M32.6188 18.5051C32.6179 18.5051 32.617 18.5049 32.616 18.5049C32.6145 18.5049 32.613 18.5051 32.6113 18.5051H32.6188Z" fill="black"/>
<path d="M48.6038 14.7825C43.1324 13.4713 37.3941 13.8237 32.1244 15.7947C31.4006 16.0669 31.0346 16.8743 31.3068 17.5979C31.5119 18.1434 32.0334 18.5044 32.6159 18.505C32.7834 18.5041 32.9493 18.4735 33.1058 18.4141C37.8514 16.6395 43.0188 16.3225 47.9458 17.5041C48.6974 17.6858 49.4539 17.224 49.6356 16.4723C49.8172 15.7207 49.3554 14.9642 48.6038 14.7825Z" fill="black"/>
<path d="M24.1486 59.7799C19.4291 55.0683 16.7839 48.6688 16.8 41.9999C16.7862 36.6718 18.4739 31.4785 21.6174 27.1767C22.0821 26.5586 21.9576 25.6809 21.3395 25.2163C20.7214 24.7517 19.8438 24.8761 19.3792 25.4942C19.371 25.5052 19.3629 25.5163 19.355 25.5275C11.2607 36.6554 12.4518 52.0153 22.1648 61.7623C22.7122 62.31 23.6002 62.3104 24.1479 61.763C24.6957 61.2156 24.696 60.3276 24.1486 59.7799Z" fill="black"/>
</svg>
