<svg width="90" height="58" viewBox="0 0 90 58" fill="none" xmlns="http://www.w3.org/2000/svg">
<path fill-rule="evenodd" clip-rule="evenodd" d="M90 35.8914C90 38.7758 88.5056 41.3174 86.2501 42.7828C88.5056 44.2482 90 46.7898 90 49.6742C90 54.2026 86.316 57.8866 81.7876 57.8866H15.1038C6.77554 57.8866 0 51.111 0 42.7828C0 35.4516 5.251 29.3263 12.1889 27.964C10.6709 26.4729 9.72722 24.3992 9.72722 22.1085C9.72722 19.223 11.2245 16.6823 13.4813 15.2171C11.2243 13.7519 9.72722 11.2111 9.72722 8.32565C9.72722 3.79729 13.4112 0.113281 17.9396 0.113281H27.3262C28.0557 0.113281 28.6471 0.704534 28.6471 1.43422C28.6471 2.16391 28.0557 2.75516 27.3262 2.75516H17.9396C14.868 2.75516 12.3691 5.2542 12.3691 8.32565C12.3691 11.3973 14.868 13.8961 17.9396 13.8961H57.8545C58.5842 13.8961 59.1754 14.4874 59.1754 15.2171C59.1754 15.9468 58.5842 16.538 57.8545 16.538H17.9396C14.868 16.538 12.3691 19.0371 12.3691 22.1085C12.3691 25.18 14.868 27.679 17.9396 27.679H75.8726C78.9443 27.679 81.4431 25.18 81.4431 22.1085C81.4431 19.0371 78.9441 16.538 75.8726 16.538H63.1381C62.4084 16.538 61.8171 15.9468 61.8171 15.2171C61.8171 14.4874 62.4084 13.8961 63.1381 13.8961H75.8726C78.9443 13.8961 81.4431 11.3971 81.4431 8.32565C81.4431 5.2542 78.9441 2.75516 75.8726 2.75516H32.6099C31.8804 2.75516 31.289 2.16391 31.289 1.43422C31.289 0.704534 31.8804 0.113281 32.6099 0.113281H75.8726C80.401 0.113281 84.085 3.79729 84.085 8.32565C84.085 11.2111 82.5879 13.7519 80.3309 15.2171C82.5879 16.6823 84.085 19.223 84.085 22.1085C84.085 24.2581 83.2539 26.2165 81.8974 27.6818C86.375 27.741 90 31.3998 90 35.8914ZM35.2518 41.4619H59.1753H59.1754V30.3209H15.1038C8.23227 30.3209 2.64188 35.9113 2.64188 42.7828C2.64188 49.6543 8.23227 55.2447 15.1038 55.2447H59.1754V44.1037H35.2518C34.5223 44.1037 33.9309 43.5125 33.9309 42.7828C33.9309 42.0531 34.5223 41.4619 35.2518 41.4619ZM61.8173 55.2447H69.6808V44.1037H61.8173V55.2447ZM61.8173 41.4619H69.6808V30.3209H61.8173V41.4619ZM81.7876 30.3209H72.3227V41.4619H81.7876C84.8591 41.4619 87.3581 38.963 87.3581 35.8914C87.3581 32.8199 84.8591 30.3209 81.7876 30.3209ZM72.3227 55.2447H81.7876C84.8591 55.2447 87.3581 52.7457 87.3581 49.6742C87.3581 46.6026 84.8591 44.1037 81.7876 44.1037H72.3227V55.2447ZM14.9147 44.1038C14.1852 44.1038 13.5938 43.5125 13.5938 42.7829C13.5938 42.0532 14.185 41.4619 14.9147 41.4619H29.9678C30.6973 41.4619 31.2887 42.0532 31.2887 42.7829C31.2887 43.5125 30.6973 44.1038 29.9678 44.1038H14.9147Z" fill="black"/>
</svg>
