<svg width="90" height="88" viewBox="0 0 90 88" fill="none" xmlns="http://www.w3.org/2000/svg">
<path fill-rule="evenodd" clip-rule="evenodd" d="M37.6172 8.95387V34.7256C37.6172 34.7898 37.6113 34.8538 37.5996 34.9165C37.5859 34.9863 37.5645 35.0549 37.5371 35.1209C37.5117 35.1824 37.4805 35.2412 37.4434 35.2964C37.4199 35.3318 37.3926 35.3657 37.3633 35.3977L37.3105 35.4536L37.2383 35.5178C37.1953 35.552 37.1504 35.5828 37.1016 35.6096C37.0586 35.6331 37.0156 35.6536 36.9707 35.6709C36.8438 35.72 36.709 35.7427 36.5742 35.7383H1.40625C1.26953 35.7429 1.13477 35.7205 1.00781 35.6716C0.943359 35.6472 0.880859 35.6162 0.822266 35.5796C0.765625 35.5435 0.712891 35.5017 0.664062 35.4548C0.566406 35.3604 0.488281 35.2471 0.433594 35.1218C0.394531 35.0296 0.369141 34.9324 0.357422 34.833L0.351562 34.7256V8.95387C0.353516 8.81886 0.380859 8.68532 0.435547 8.56154C0.449219 8.52907 0.466797 8.49757 0.484375 8.46705L0.517578 8.41115C0.560547 8.34669 0.611328 8.28737 0.667969 8.23414L0.734375 8.17628L0.775391 8.14699L0.851562 8.09816L0.919922 8.06276L1.00977 8.02394C1.07031 8.00172 1.13281 7.98537 1.19727 7.97536C1.26562 7.96461 1.33594 7.9612 1.40625 7.96486H10.8848L18.2441 0.58058C18.2793 0.541274 18.3184 0.504897 18.3594 0.471938L18.4512 0.405043C18.4922 0.378676 18.5352 0.355238 18.5801 0.335219C18.709 0.277602 18.8477 0.247572 18.9883 0.24684C19.1289 0.246107 19.2676 0.274672 19.3965 0.33058C19.4727 0.363783 19.5449 0.40602 19.6094 0.456313C19.6543 0.491225 19.6953 0.530043 19.7344 0.572279L27.0957 7.96486H36.5742C36.6348 7.96168 36.6953 7.96388 36.7539 7.97169C36.8262 7.98121 36.8984 7.99904 36.9688 8.02467C37.0938 8.07106 37.2109 8.14284 37.3086 8.23512C37.4062 8.32765 37.4824 8.43922 37.5371 8.56276C37.5898 8.68629 37.6172 8.81935 37.6172 8.95387ZM23.1621 25.6284L30.5859 22.168V14.293H7.20703V23.73L12.873 19.4971C13.0547 19.365 13.2715 19.2915 13.4961 19.2864C13.7188 19.2813 13.9395 19.3447 14.127 19.4685L23.1621 25.6284ZM13.5469 21.6367L7.20703 26.3672V29.4102H30.5859V24.4927L23.5039 27.7935C23.375 27.8577 23.2363 27.8911 23.0938 27.8914C23.0176 27.8914 22.9414 27.8831 22.8672 27.8674C22.8105 27.8555 22.7559 27.8391 22.7031 27.8184C22.6289 27.7898 22.5566 27.7532 22.4902 27.7088L13.5469 21.6367ZM6.625 12.1836H31.3164L33.8379 10.0742H4.08594L6.625 12.1836ZM5.09766 29.9727V13.7818L2.46094 11.388V32.3858L5.09766 29.9727ZM31.3145 31.5195H6.62695L4.18945 33.6289H33.7344L31.3145 31.5195ZM32.6953 13.7793V29.9744L35.5078 32.4382V11.336L32.6953 13.7793ZM24.1113 7.96486L18.9902 2.84254L13.8672 7.96486H24.1113ZM83.1445 47.1023V57.3447C84.9121 57.4531 86.5703 58.2341 87.7793 59.5274C88.9902 60.8203 89.6582 62.5274 89.6484 64.2979V80.4043C89.6484 80.542 89.6211 80.6782 89.5664 80.8049C89.5137 80.9319 89.4355 81.0469 89.3379 81.1433C89.2402 81.2398 89.123 81.3159 88.9961 81.367L88.8828 81.4041L88.8184 81.4202L88.7109 81.4365L88.5938 81.4414H85.6055V86.7149C85.5938 86.9995 85.4727 87.2686 85.2676 87.4656C85.0605 87.6624 84.7871 87.7713 84.502 87.7695H72.5723C72.4355 87.7691 72.2988 87.7412 72.1738 87.6878C72.0469 87.6343 71.9316 87.5562 71.8359 87.458C71.7402 87.3599 71.666 87.2434 71.6152 87.116C71.5645 86.9883 71.541 86.8521 71.543 86.7149V81.4414H20.2148V86.7149C20.2168 86.8074 20.207 86.8994 20.1836 86.9885L20.1426 87.116C20.0918 87.2434 20.0176 87.3599 19.9219 87.458C19.8262 87.5562 19.7109 87.6343 19.5859 87.6878C19.459 87.7412 19.3242 87.7691 19.1855 87.7695H7.25586C6.9707 87.7715 6.69727 87.6624 6.49023 87.4656C6.28516 87.2688 6.16406 86.9995 6.15234 86.7149V81.4414H3.16406C3.02734 81.4434 2.89062 81.4182 2.76172 81.367L2.67578 81.3279L2.61328 81.2927C2.54297 81.2507 2.47852 81.2007 2.41992 81.1433C2.32227 81.0466 2.24414 80.9319 2.19141 80.8049C2.16016 80.7341 2.13867 80.6602 2.125 80.5847C2.11523 80.5254 2.10938 80.4651 2.10938 80.4043V64.2979C2.09961 62.5274 2.76758 60.8203 3.97852 59.5274C5.1875 58.2341 6.8457 57.4531 8.61328 57.3447V47.1023C8.61719 45.2542 9.35156 43.4827 10.6602 42.1763C11.9668 40.8699 13.7402 40.1353 15.5879 40.1333H63.9844V28.8833H56.248C56.082 28.8775 55.918 28.833 55.7715 28.7537C55.625 28.6743 55.498 28.5625 55.4023 28.4263C55.3535 28.3587 55.3125 28.2861 55.2812 28.21C55.248 28.1311 55.2246 28.0484 55.209 27.9634C55.1953 27.8799 55.1914 27.7954 55.1953 27.7114C55.1973 27.6582 55.2051 27.605 55.2168 27.5525L55.2383 27.4627L58.916 15.207C58.9824 14.9912 59.1172 14.8027 59.2988 14.6697C59.4805 14.5364 59.7012 14.4661 59.9258 14.4688H70.1523C70.3789 14.4678 70.5977 14.5401 70.7812 14.6746C70.9629 14.8091 71.0957 14.9988 71.1621 15.2156L74.8398 27.4732L74.8633 27.5708L74.8809 27.6912C74.8867 27.783 74.8828 27.8755 74.8672 27.9666C74.8496 28.0628 74.8203 28.156 74.7812 28.2439C74.752 28.3064 74.7168 28.3662 74.6758 28.4226C74.5781 28.5581 74.4531 28.6702 74.3066 28.7498C74.1602 28.8296 73.9961 28.875 73.8301 28.8828H66.0938V40.1328H76.1719C78.0195 40.1348 79.791 40.8694 81.0996 42.1758C82.4062 43.4824 83.1426 45.2542 83.1445 47.1023ZM69.3672 16.5781H60.7109L57.666 26.7735H72.4121L69.3672 16.5781ZM76.1719 42.2422H15.5879C14.2988 42.2434 13.0625 42.7556 12.1504 43.6665C11.7305 44.0864 11.3945 44.5752 11.1543 45.1062C11 45.4507 10.8848 45.813 10.8125 46.1858C10.7539 46.4856 10.7227 46.7923 10.7227 47.1018V57.5256C12.2285 57.9099 13.5625 58.7837 14.5176 60.0098C15.4727 61.2356 15.9922 62.7442 15.9961 64.2979V67.5547H75.7617V64.2984C75.7637 63.4548 75.918 62.6248 76.2109 61.846C76.457 61.19 76.8027 60.5703 77.2402 60.01C78.1953 58.7839 79.5293 57.9102 81.0352 57.5261V47.1023C81.0352 46.9793 81.0312 46.8567 81.0215 46.7346C81.0117 46.6123 80.998 46.4907 80.9785 46.3701C80.9043 45.8936 80.7617 45.4321 80.5547 45.0005C80.3184 44.5103 80 44.0586 79.6074 43.667C78.6953 42.7559 77.4609 42.2437 76.1719 42.2422ZM8.26172 85.6602H18.1055V81.4414H8.26172V85.6602ZM73.6523 85.6602H83.4961V81.4414H73.6523V85.6602ZM4.21875 79.332H87.5391V64.2979C87.5391 63.0159 87.0293 61.7864 86.123 60.8797C85.2168 59.9732 83.9863 59.4639 82.7051 59.4639C81.4238 59.4639 80.1934 59.9732 79.2871 60.8797C78.3809 61.7864 77.8711 63.0159 77.8711 64.2979V68.5742C77.8594 68.8631 77.7402 69.1367 77.5332 69.3394C77.3281 69.542 77.0508 69.6582 76.7617 69.6641H14.9961C14.707 69.6582 14.4316 69.542 14.2246 69.3394C14.0195 69.1367 13.8984 68.8631 13.8867 68.5742V64.2979C13.8867 63.3985 13.6367 62.5249 13.1738 61.7703C13.0664 61.5957 12.9473 61.4275 12.8184 61.2669C12.709 61.1323 12.5938 61.0029 12.4707 60.8797C11.5645 59.9732 10.334 59.4639 9.05273 59.4639C8.28906 59.4639 7.54492 59.6448 6.875 59.9827C6.42188 60.2117 6.00195 60.5132 5.63477 60.8797C5.36133 61.1526 5.125 61.4548 4.92773 61.7791C4.75391 62.063 4.61133 62.3635 4.5 62.6758C4.31641 63.1917 4.21875 63.7398 4.21875 64.2979V79.332ZM24.2051 22.0132C24.3203 21.9536 24.4316 21.8875 24.5391 21.8152C25.123 21.4248 25.5781 20.8699 25.8477 20.2207C26.1172 19.5713 26.1875 18.8569 26.0508 18.1677C25.9121 17.4785 25.5742 16.8452 25.0781 16.3484C24.5801 15.8513 23.9473 15.513 23.2578 15.376C22.5684 15.2388 21.8535 15.3091 21.2051 15.5781C20.5566 15.8469 20.002 16.3025 19.6113 16.8867C19.2207 17.4712 19.0117 18.1582 19.0117 18.8609C19.0137 19.803 19.3867 20.7061 20.0527 21.3723C20.7188 22.0383 21.623 22.4131 22.5645 22.4141C22.9727 22.4141 23.377 22.3438 23.7578 22.2078C23.9121 22.1533 24.0605 22.0884 24.2051 22.0132ZM22.5645 17.4173C22.8496 17.4173 23.1289 17.502 23.3672 17.6604C23.4297 17.7024 23.4902 17.7493 23.5449 17.8003C23.6973 17.9414 23.8184 18.1148 23.8984 18.3086C23.9707 18.4851 24.0078 18.6736 24.0098 18.8631C24.0098 18.9566 24 19.0503 23.9805 19.1428C23.9258 19.4229 23.7871 19.6802 23.5859 19.8821C23.3848 20.084 23.127 20.2214 22.8457 20.2771C22.5664 20.3328 22.2754 20.3042 22.0117 20.1948C21.8789 20.1399 21.7559 20.0657 21.6465 19.9751C21.5391 19.886 21.4434 19.781 21.3652 19.6631C21.2051 19.4256 21.1211 19.1465 21.1211 18.8609C21.1211 18.478 21.2734 18.1109 21.5449 17.8399C21.8145 17.5691 22.1816 17.4168 22.5645 17.4173ZM60.8105 55.1216C60.8105 54.6975 60.8809 54.2781 61.0156 53.8794C61.0527 53.7708 61.0938 53.6636 61.1406 53.5586C61.1914 53.4426 61.248 53.3289 61.3105 53.2178L59.8184 51.7271C59.7188 51.6297 59.6387 51.5132 59.584 51.3848C59.5293 51.2564 59.502 51.1182 59.5 50.9785C59.5 50.8386 59.5254 50.7002 59.5781 50.5711L59.6309 50.4631L59.6758 50.387L59.7305 50.3128L59.8086 50.2254C59.9082 50.1267 60.0254 50.0486 60.1543 49.9954C60.2832 49.9424 60.4219 49.9155 60.5625 49.9165C60.7012 49.9175 60.8398 49.9461 60.9688 50.001C61.0957 50.0557 61.2129 50.1355 61.3105 50.2356L62.8008 51.7261C63.1426 51.5344 63.5078 51.396 63.8867 51.3142C64.1543 51.2566 64.4297 51.2273 64.7051 51.2273C65.3711 51.2273 66.0273 51.3992 66.6094 51.7261L68.0996 50.2356C68.1465 50.188 68.1973 50.1455 68.2539 50.1084L68.3145 50.0696C68.3887 50.0264 68.4668 49.9924 68.5488 49.9685C68.6445 49.9409 68.7441 49.9265 68.8457 49.9265C69.125 49.9265 69.3926 50.0376 69.5898 50.2354C69.7891 50.4334 69.9004 50.7014 69.9004 50.9812C69.9004 51.261 69.7891 51.5293 69.5898 51.7271L68.0996 53.219C68.2285 53.4492 68.332 53.6909 68.4102 53.9402C68.5312 54.3208 68.5938 54.7193 68.5938 55.1214C68.5938 55.4548 68.5508 55.7854 68.4668 56.1055C68.3848 56.4246 68.2617 56.7332 68.0996 57.0237L69.5898 58.5156C69.6992 58.6243 69.7812 58.7539 69.834 58.895C69.877 59.0112 69.9004 59.1353 69.9004 59.2615C69.9004 59.5413 69.7891 59.8096 69.5898 60.0073C69.3926 60.2051 69.125 60.3162 68.8457 60.3162C68.5645 60.3162 68.2969 60.2051 68.0996 60.0073L66.6094 58.5169C66.3633 58.655 66.1035 58.7654 65.8359 58.8469C65.6367 58.908 65.4316 58.9527 65.2246 58.9807C65.0527 59.0039 64.8789 59.0156 64.7051 59.0156C64.3789 59.0156 64.0566 58.9749 63.7441 58.895C63.416 58.8113 63.0996 58.6843 62.8008 58.5169L61.3105 60.0073C61.2129 60.1074 61.0957 60.1873 60.9688 60.242C60.8398 60.2969 60.7012 60.3255 60.5625 60.3264C60.4219 60.3274 60.2832 60.3006 60.1543 60.2476C60.0254 60.1946 59.9082 60.1162 59.8086 60.0176C59.7109 59.9187 59.6328 59.8013 59.5781 59.6721C59.5508 59.6038 59.5293 59.533 59.5176 59.4607L59.5059 59.3633L59.5 59.2647C59.502 59.1248 59.5293 58.9868 59.584 58.8582C59.6387 58.7298 59.7188 58.6133 59.8184 58.5159L61.3105 57.0254C60.9824 56.4441 60.8105 55.7886 60.8105 55.1216ZM65.8379 53.742C65.5176 53.48 65.1172 53.3369 64.7051 53.3369C64.4707 53.3362 64.2383 53.3821 64.0215 53.4719C63.8047 53.5615 63.6074 53.6934 63.4434 53.8596C63.1504 54.1516 62.9688 54.5359 62.9277 54.947C62.9062 55.1653 62.9258 55.384 62.9824 55.5925C63.0332 55.7766 63.1133 55.9529 63.2207 56.114C63.4512 56.4573 63.791 56.7105 64.1875 56.8306C64.582 56.9505 65.0078 56.9295 65.3887 56.7715C65.7695 56.6133 66.0859 56.3279 66.2793 55.9636C66.4746 55.5994 66.5371 55.1787 66.457 54.7737C66.375 54.3687 66.1562 54.0039 65.8379 53.742ZM41.9746 53.2178C41.6465 53.7988 41.4746 54.4546 41.4746 55.1216C41.4746 55.5115 41.5332 55.8972 41.6465 56.2669C41.7285 56.5296 41.8379 56.7839 41.9746 57.0254L40.4824 58.5159C40.3828 58.6133 40.3027 58.7298 40.248 58.8582C40.2305 58.8982 40.2168 58.9392 40.2051 58.981C40.1797 59.073 40.166 59.1682 40.1641 59.2647C40.1641 59.4043 40.1895 59.5427 40.2422 59.6721C40.2969 59.8013 40.375 59.9187 40.4727 60.0176C40.5371 60.0818 40.6094 60.1375 40.6875 60.1831C40.7305 60.2075 40.7734 60.229 40.8184 60.2476C40.8867 60.2756 40.957 60.2962 41.0293 60.3093C41.0938 60.3211 41.1602 60.3269 41.2266 60.3264C41.3652 60.3255 41.5039 60.2969 41.6328 60.242C41.7598 60.1873 41.877 60.1074 41.9746 60.0073L43.4648 58.5169C44.0469 58.8438 44.7012 59.0156 45.3691 59.0156C46.0352 59.0156 46.6914 58.8438 47.2734 58.5169L48.7637 60.0073C48.791 60.0354 48.8203 60.0618 48.8516 60.0862L48.9531 60.1577C49.1191 60.2605 49.3105 60.3162 49.5098 60.3162C49.7891 60.3162 50.0566 60.2051 50.2539 60.0073C50.4531 59.8096 50.5645 59.5413 50.5645 59.2615C50.5645 58.9819 50.4531 58.7136 50.2539 58.5156L48.7637 57.0237C49.0879 56.4422 49.2578 55.7874 49.2578 55.1214C49.2578 54.4556 49.0879 53.8006 48.7637 53.219L50.2539 51.7271C50.4531 51.5293 50.5645 51.261 50.5645 50.9812C50.5645 50.9111 50.5566 50.8418 50.543 50.7742C50.5273 50.7005 50.5059 50.6289 50.4766 50.5603C50.4238 50.4402 50.3496 50.3298 50.2539 50.2354C50.0566 50.0376 49.7891 49.9265 49.5098 49.9265C49.3457 49.9265 49.1855 49.9644 49.041 50.0354C48.9395 50.086 48.8457 50.1533 48.7637 50.2356L47.2734 51.7261C46.6914 51.3992 46.0352 51.2273 45.3691 51.2273C44.7012 51.2273 44.0469 51.3992 43.4648 51.7261L41.9746 50.2356C41.877 50.1355 41.7598 50.0557 41.6328 50.001C41.5566 49.9688 41.4766 49.9456 41.3965 49.9319C41.3398 49.9221 41.2832 49.917 41.2266 49.9165C41.0859 49.9155 40.9473 49.9424 40.8184 49.9954C40.6895 50.0486 40.5723 50.1267 40.4727 50.2254C40.375 50.3242 40.2969 50.4417 40.2422 50.5711C40.2285 50.606 40.2148 50.6416 40.2051 50.6777C40.1777 50.7754 40.1641 50.8765 40.1641 50.9785C40.166 51.1182 40.1934 51.2564 40.248 51.3848C40.3027 51.5132 40.3828 51.6297 40.4824 51.7271L41.9746 53.2178ZM45.3691 53.3369C45.7812 53.3369 46.1816 53.48 46.502 53.742C46.8203 54.0039 47.0391 54.3687 47.1211 54.7737C47.2012 55.1787 47.1387 55.5994 46.9434 55.9636C46.75 56.3279 46.4336 56.6133 46.0527 56.7715C45.6719 56.9295 45.2461 56.9505 44.8516 56.8306C44.4551 56.7105 44.1152 56.4573 43.8848 56.114C43.6562 55.7705 43.5527 55.3582 43.5918 54.947C43.6328 54.5359 43.8145 54.1516 44.1074 53.8596C44.2715 53.6934 44.4688 53.5615 44.6855 53.4719C44.9023 53.3821 45.1348 53.3362 45.3691 53.3369ZM22.1387 55.1216C22.1387 54.4546 22.3105 53.7988 22.6387 53.2178L21.1465 51.7271C21.0762 51.6585 21.0156 51.5806 20.9668 51.4959C20.9453 51.46 20.9277 51.4229 20.9121 51.3848C20.8574 51.2564 20.8301 51.1182 20.8281 50.9785C20.8281 50.8386 20.8535 50.7002 20.9062 50.5711C20.9609 50.4417 21.0391 50.3242 21.1367 50.2254C21.2363 50.1267 21.3535 50.0486 21.4824 49.9954C21.6113 49.9424 21.75 49.9155 21.8906 49.9165C22.0293 49.9175 22.168 49.9461 22.2969 50.001C22.4238 50.0557 22.541 50.1355 22.6387 50.2356L24.1289 51.7261C24.7109 51.3992 25.3652 51.2273 26.0332 51.2273C26.6992 51.2273 27.3555 51.3992 27.9375 51.7261L29.4277 50.2356C29.5254 50.1377 29.6406 50.0598 29.7695 50.0068C29.8965 49.9539 30.0352 49.9265 30.1738 49.9265C30.3105 49.9265 30.4492 49.9539 30.5762 50.0068C30.7051 50.0598 30.8203 50.1375 30.918 50.2354C31.0176 50.3335 31.0938 50.4497 31.1465 50.5777C31.2012 50.7056 31.2285 50.8428 31.2285 50.9812C31.2285 51.0667 31.2168 51.1516 31.1973 51.2341C31.1836 51.2854 31.168 51.3357 31.1465 51.3848C31.0938 51.513 31.0176 51.6292 30.918 51.7271L29.4277 53.219C29.752 53.8006 29.9219 54.4556 29.9219 55.1214C29.9219 55.7874 29.752 56.4422 29.4277 57.0237L30.918 58.5156C31.1172 58.7136 31.2285 58.9819 31.2285 59.2615C31.2285 59.3982 31.2012 59.5322 31.1504 59.6565C31.0977 59.7866 31.0195 59.9063 30.918 60.0073C30.7207 60.2051 30.4531 60.3162 30.1738 60.3162C29.8926 60.3162 29.625 60.2051 29.4277 60.0073L27.9375 58.5169C27.3555 58.8438 26.6992 59.0156 26.0332 59.0156C25.3652 59.0156 24.7109 58.8438 24.1289 58.5169L22.6387 60.0073C22.541 60.1074 22.4238 60.1873 22.2969 60.242C22.2188 60.2752 22.1367 60.2988 22.0547 60.3123C22 60.3213 21.9453 60.3259 21.8906 60.3264C21.75 60.3274 21.6113 60.3006 21.4824 60.2476C21.3535 60.1946 21.2363 60.1162 21.1367 60.0176C21.0391 59.9187 20.9609 59.8013 20.9062 59.6721C20.8535 59.5427 20.8281 59.4043 20.8281 59.2647C20.8301 59.1875 20.8379 59.1111 20.8555 59.0364C20.8691 58.9756 20.8867 58.916 20.9121 58.8582C20.9668 58.7298 21.0469 58.6133 21.1465 58.5159L22.6387 57.0254C22.3105 56.4441 22.1387 55.7886 22.1387 55.1216ZM27.166 53.742C26.8457 53.48 26.4453 53.3369 26.0332 53.3369C25.7988 53.3362 25.5664 53.3821 25.3496 53.4719C25.1328 53.5615 24.9355 53.6934 24.7715 53.8596C24.4785 54.1516 24.2969 54.5359 24.2559 54.947C24.2168 55.3582 24.3203 55.7705 24.5488 56.114C24.7793 56.4573 25.1191 56.7105 25.5156 56.8306C25.9102 56.9505 26.3359 56.9295 26.7168 56.7715C27.0977 56.6133 27.4141 56.3279 27.6074 55.9636C27.8027 55.5994 27.8652 55.1787 27.7852 54.7737C27.7031 54.3687 27.4844 54.0039 27.166 53.742Z" fill="black"/>
</svg>
