<svg width="90" height="82" viewBox="0 0 90 82" fill="none" xmlns="http://www.w3.org/2000/svg">
<path d="M89.8322 64.5423C89.5853 64.0812 89.1045 63.7931 88.5813 63.7931H53.5119V52.1033H83.7389C84.2655 52.1033 84.7486 51.8116 84.9941 51.3458C85.2397 50.8799 85.2068 50.3166 84.9088 49.8823L53.5119 4.09973V2.26095C53.5119 1.47728 52.8767 0.842285 52.0933 0.842285C51.3098 0.842285 50.6746 1.47728 50.6746 2.26095V11.8318L30.9121 47.577C30.669 48.0164 30.6766 48.5516 30.9317 48.9841C31.1869 49.4166 31.6515 49.6819 32.1537 49.6819H47.3807C48.1641 49.6819 48.7993 49.047 48.7993 48.2633C48.7993 47.4796 48.1641 46.8446 47.3807 46.8446H34.5592L50.6746 17.6958V63.7929H47.7805V63.093C47.7805 58.1389 43.7498 54.1082 38.7957 54.1082H27.0491V22.1476C27.0491 22.1459 27.0491 22.1444 27.0491 22.1427V21.29C27.0491 20.5063 26.414 19.8713 25.6305 19.8713C24.847 19.8713 24.2118 20.5063 24.2118 21.29V21.7053L5.0871 49.8881C4.79221 50.3228 4.76156 50.8848 5.00746 51.349C5.25337 51.8132 5.73571 52.1033 6.26099 52.1033H20.7881C21.5716 52.1033 22.2068 51.4683 22.2068 50.6847C22.2068 49.901 21.5716 49.266 20.7881 49.266H8.9383L24.2118 26.758V54.1084H20.7881C20.0046 54.1084 19.3694 54.7434 19.3694 55.527V58.9507H11.1034C10.3199 58.9507 9.6847 59.5857 9.6847 60.3694V63.7931H1.41862C0.962572 63.7931 0.534325 64.0123 0.267805 64.3821C0.0010967 64.7521 -0.0713497 65.2278 0.0727865 65.6604L4.91516 80.1876C5.10828 80.7669 5.6504 81.1575 6.26099 81.1575H78.8965C79.3709 81.1575 79.8139 80.9205 80.0769 80.5258L89.7616 65.9987C90.0518 65.5632 90.0788 65.0035 89.8322 64.5423ZM81.0459 49.266H53.5119V12.2135C53.5119 12.2103 53.5119 12.2073 53.5119 12.2043V9.1165L81.0459 49.266ZM78.1375 78.3202H7.28357L3.38697 66.6304H40.6681C41.4516 66.6304 42.0868 65.9954 42.0868 65.2118C42.0868 64.4281 41.4516 63.7931 40.6681 63.7931H12.522V61.7881H20.7881C21.5716 61.7881 22.2068 61.1531 22.2068 60.3694V56.9457H38.7957C40.5909 56.9457 42.2088 57.7195 43.3337 58.9509H26.8411C26.0576 58.9509 25.4224 59.5859 25.4224 60.3696C25.4224 61.1533 26.0576 61.7883 26.8411 61.7883H44.8025C44.8938 62.2091 44.9432 62.6455 44.9432 63.0932V65.2118C44.9432 65.9954 45.5784 66.6304 46.3619 66.6304C46.4415 66.6304 46.5191 66.6223 46.5951 66.6096C46.6711 66.6223 46.7487 66.6304 46.8283 66.6304H85.9305L78.1375 78.3202Z" fill="black"/>
</svg>
