<svg width="88" height="88" viewBox="0 0 88 88" fill="none" xmlns="http://www.w3.org/2000/svg">
<path fill-rule="evenodd" clip-rule="evenodd" d="M66.843 64.79C70.2939 62.0713 75.2308 62.3554 78.3471 65.4519L86.3411 73.4459C88.0411 75.1465 88.0411 77.9031 86.3411 79.6037L79.6042 86.3406C77.9036 88.0406 75.147 88.0406 73.4464 86.3406L65.4524 78.3466C62.3559 75.2303 62.0718 70.2934 64.7904 66.8425L61.3777 63.4298C44.1529 80.1001 20.943 85.6482 8.52158 87.4598C6.26576 87.8856 3.94665 87.1527 2.34527 85.5078C0.743896 83.8629 0.0733578 81.525 0.559481 79.2814C2.52642 66.8498 8.27916 43.7808 24.5851 26.6372L21.1579 23.21C17.7155 25.9554 12.7586 25.6702 9.65384 22.548L1.6598 14.554C-0.0402469 12.8534 -0.0402469 10.0968 1.6598 8.39625L8.39674 1.65932C10.0973 -0.0407352 12.8539 -0.0407352 14.5545 1.65932L22.5485 9.65335C25.645 12.7696 25.9291 17.7066 23.2104 21.1574L26.6232 24.5701C43.8553 7.8998 67.0579 2.35173 79.4793 0.540122C81.7351 0.114293 84.0542 0.847237 85.6556 2.49212C87.257 4.137 87.9275 6.47491 87.4414 8.71851C85.4803 21.153 79.7217 44.2192 63.4158 61.3627L66.843 64.79ZM83.5924 4.53151C82.6388 3.54181 81.24 3.11778 79.8974 3.41141C67.8345 5.17222 45.3069 10.5432 28.67 26.6227L33.3035 31.2563C39.4584 25.4643 46.8035 22.0429 53.1906 22.0429C56.6394 21.9084 59.9919 23.1975 62.4621 25.608C68.5719 31.9095 65.943 44.6851 56.7253 54.6722L61.3632 59.3101C77.0972 42.7414 82.6627 20.3387 84.5745 8.26561C84.9178 6.93482 84.546 5.52121 83.5924 4.53151ZM25.2819 50.5598L37.5321 62.81C28.8296 64.2572 23.929 58.9792 25.2819 50.5598ZM26.0963 47.269L40.8142 61.9869C43.3526 61.1136 45.7636 59.9064 47.9837 58.3971L29.6484 40.0632C28.1483 42.296 26.9536 44.7194 26.0963 47.269ZM31.3598 37.668L50.3556 56.6624C51.1337 56.0483 51.8972 55.385 52.639 54.6911L33.3253 35.3774C32.6343 36.1293 31.9695 36.8914 31.3598 37.668ZM53.314 24.9461C46.8209 24.9461 40.0869 28.8887 35.3619 33.3088L54.6756 52.6225C62.8075 43.7808 65.4074 32.8182 60.3775 27.6301C58.4849 25.8138 55.9352 24.845 53.314 24.9461ZM3.71238 12.5L11.7006 20.4954H11.7064C13.6905 22.4712 16.802 22.7496 19.1053 21.1574L13.7009 15.753C13.3236 15.3886 13.1722 14.8488 13.3051 14.3413C13.4379 13.8338 13.8343 13.4374 14.3418 13.3046C14.8493 13.1717 15.389 13.3231 15.7535 13.7004L21.1593 19.1092C22.7536 16.8046 22.4745 13.6903 20.4959 11.7059L12.5019 3.7119C11.935 3.14521 11.0162 3.14521 10.4493 3.7119L3.71238 10.4474C3.1457 11.0142 3.1457 11.9331 3.71238 12.5ZM23.2946 58.94C19.8514 50.7137 25.173 39.934 31.2698 33.3277L26.6377 28.6898C19.3851 36.5402 13.7089 45.7114 9.91803 55.7043L19.9037 65.9992L24.6185 61.2843C24.0849 60.5587 23.6404 59.7716 23.2946 58.94ZM7.12948 63.71L23.9725 81.0858L23.9784 81.0829C25.6013 80.6024 27.2488 80.0856 28.9342 79.4933C6.04281 55.8839 7.96148 57.863 9.72506 59.6822C10.6494 60.6357 11.5312 61.5453 8.77561 58.7033C8.16448 60.409 7.62884 62.0725 7.12948 63.71ZM4.40848 83.4684C5.36207 84.4581 6.76089 84.8821 8.10351 84.5885C12.3816 83.9562 16.6207 83.0838 20.8008 81.9756L6.20335 66.9195C5.04459 71.1372 4.11756 75.4152 3.42642 79.7343C3.08311 81.0651 3.45489 82.4787 4.40848 83.4684ZM21.9156 68.0837L31.91 78.3901H31.9143C42.0952 74.6053 51.4156 68.8213 59.3266 61.3787L54.693 56.7451C48.5382 62.5371 41.193 65.9585 34.8059 65.9585C31.8694 66.0423 28.9907 65.1307 26.6377 63.3717L21.9156 68.0837ZM77.5472 84.288L84.2842 77.5511H84.2885C84.8542 76.9844 84.8542 76.0666 84.2885 75.5L76.2988 67.5045C74.3167 65.5207 71.1982 65.2419 68.8956 66.8425L75.3785 73.3254C75.7559 73.6899 75.9072 74.2296 75.7744 74.7371C75.6415 75.2447 75.2452 75.641 74.7376 75.7739C74.2301 75.9067 73.6904 75.7554 73.3259 75.378L66.8372 68.8908C65.243 71.1953 65.522 74.3096 67.5006 76.294L75.4946 84.288C76.0615 84.8547 76.9804 84.8547 77.5472 84.288ZM77.0151 11.0339C71.4508 12.083 66.0047 13.6828 60.757 15.8097C60.2779 16.024 59.7204 15.9628 59.299 15.6499C58.8776 15.3369 58.658 14.8209 58.7247 14.3002C58.7913 13.7796 59.1338 13.3355 59.6204 13.1388C65.7364 10.6606 72.1089 8.86993 78.6206 7.79972C79.0797 7.73043 79.5442 7.88493 79.8704 8.21539C80.1965 8.54584 80.3449 9.01237 80.2696 9.47053C79.1102 16.0438 77.2412 22.4718 74.6954 28.642C74.3735 29.3713 73.5237 29.7045 72.7918 29.3884C72.06 29.0723 71.72 28.2252 72.0303 27.4909C74.2221 22.18 75.8916 16.6684 77.0151 11.0339Z" fill="black"/>
</svg>
