<svg width="90" height="90" viewBox="0 0 90 90" fill="none" xmlns="http://www.w3.org/2000/svg">
<path d="M85.2773 37.0695H83.9832C83.1122 32.5876 80.8659 28.5943 77.4429 25.5512C73.1292 21.7162 67.2404 19.604 60.8613 19.604H29.1386C22.7595 19.604 16.8706 21.716 12.5569 25.5512C9.13412 28.5943 6.88764 32.5876 6.01664 37.0695H4.72254C2.11869 37.0695 0 39.1881 0 41.7922C0 44.3964 2.11869 46.5149 4.72271 46.5149H6.31881C8.57549 54.5263 15.9483 60.4158 24.6714 60.4158H34.6604C34.6788 61.5505 35.0766 62.6527 35.813 63.5495C36.7813 64.7293 38.2126 65.4059 39.7389 65.4059H51.3881C52.9146 65.4059 54.3456 64.7292 55.314 63.5495C56.05 62.6527 56.4479 61.5507 56.4666 60.4158H65.3282C74.0514 60.4158 81.4243 54.5263 83.6808 46.5149H85.2769C87.8811 46.5149 89.9996 44.3962 89.9996 41.7922C90 39.1881 87.8813 37.0695 85.2773 37.0695ZM4.72271 43.8418C3.59262 43.8418 2.67328 42.9223 2.67328 41.7923C2.67328 40.6624 3.59262 39.7429 4.72271 39.7429H5.66385C5.66068 39.7879 5.6598 39.8333 5.65664 39.8784C5.64486 40.0618 5.6352 40.246 5.62799 40.4306C5.62535 40.4972 5.62272 40.5638 5.62043 40.6306C5.61287 40.8705 5.60795 41.1108 5.60795 41.3525C5.60795 41.5441 5.61164 41.7349 5.61727 41.9251C5.61885 41.9769 5.62113 42.0288 5.62307 42.0806C5.62852 42.2267 5.63572 42.3724 5.64451 42.5174C5.6475 42.5674 5.65049 42.6173 5.654 42.6672C5.66561 42.8375 5.67949 43.0073 5.69549 43.1766C5.69742 43.1963 5.69883 43.2158 5.70059 43.2355C5.72045 43.4357 5.74295 43.6351 5.76896 43.8333C5.76949 43.8365 5.76967 43.8393 5.77002 43.8423H4.72271V43.8418ZM34.887 57.7427H24.6714C16.7957 57.7427 10.2006 52.159 8.63473 44.7427C8.62242 44.6845 8.61047 44.6265 8.59887 44.5681C8.58445 44.4953 8.57039 44.4226 8.55686 44.3494C8.54297 44.2742 8.52961 44.1988 8.51678 44.1232C8.50641 44.0631 8.49639 44.0031 8.48689 43.943C8.47266 43.8536 8.45947 43.7639 8.44664 43.6741C8.43943 43.6245 8.4324 43.5751 8.42572 43.5254C8.41236 43.4254 8.40041 43.3252 8.38898 43.225C8.38424 43.1829 8.37896 43.1408 8.37457 43.0987C8.36314 42.9922 8.3533 42.8852 8.34416 42.7785C8.341 42.7409 8.33695 42.7032 8.33414 42.6654C8.32535 42.5551 8.31832 42.4448 8.31164 42.3345C8.30953 42.2989 8.30689 42.2638 8.30478 42.2283C8.29881 42.1149 8.29459 42.0015 8.2909 41.8881C8.28984 41.8551 8.28809 41.8224 8.28721 41.7894C8.28334 41.6442 8.28141 41.4988 8.28141 41.3536C8.28141 41.3531 8.28141 41.3527 8.28141 41.3522C8.28141 41.1423 8.28563 40.9321 8.29213 40.7224C8.29389 40.6659 8.29617 40.6095 8.29846 40.5531C8.30461 40.3905 8.31305 40.2284 8.32324 40.0663C8.32658 40.0126 8.32957 39.9586 8.33344 39.9046C8.34768 39.7037 8.36438 39.5037 8.38441 39.3042C8.39127 39.2377 8.39953 39.172 8.40709 39.1059C8.4208 38.982 8.43539 38.8586 8.45139 38.7353C9.72123 29.0558 18.0295 22.2771 29.1386 22.2771H43.8416V24.9504H42.2638H29.1386C24.0704 24.9504 19.4432 26.5827 16.1095 29.5465C12.7373 32.5448 10.9547 36.6272 10.9547 41.3522C10.9547 48.9157 17.1081 55.0691 24.6716 55.0691H32.7234L37.3426 33.3962C37.9051 30.7568 39.7468 28.5613 42.2689 27.5228L43.8414 26.8754V29.7995C41.9228 30.3537 40.3879 31.9317 39.9572 33.9532L34.887 57.7427ZM37.4859 27.6238C36.1188 29.0572 35.1515 30.8531 34.7282 32.8393L30.5601 52.3962H24.6718C18.5822 52.3962 13.6281 47.4421 13.6281 41.3525C13.6281 37.4129 15.1003 34.0214 17.8859 31.5446C20.7297 29.0162 24.7261 27.6238 29.1387 27.6238H37.4859ZM53.248 61.8534C52.7892 62.4124 52.1114 62.7328 51.3882 62.7328H39.739C39.0161 62.7328 38.3381 62.4124 37.8793 61.8534C37.4205 61.2944 37.2382 60.5672 37.3774 59.8667L42.5921 34.5303C42.8632 33.2133 44.0358 32.2574 45.3806 32.2574C46.7063 32.2574 47.8756 33.1972 48.1607 34.492L53.7507 59.8702C53.8868 60.5756 53.704 61.2977 53.248 61.8534ZM81.7128 41.7897C81.7119 41.8222 81.7102 41.8546 81.7091 41.8871C81.7054 42.001 81.7012 42.1149 81.6952 42.2288C81.6935 42.264 81.6906 42.2986 81.6887 42.3336C81.6822 42.4445 81.675 42.5552 81.6662 42.6662C81.6632 42.7034 81.6594 42.7405 81.6562 42.7776C81.6469 42.885 81.637 42.9924 81.6258 43.0995C81.6214 43.1411 81.6161 43.1826 81.6115 43.2243C81.5999 43.3252 81.588 43.4259 81.5746 43.5264C81.5681 43.5756 81.5609 43.6247 81.5539 43.6736C81.5411 43.7639 81.5277 43.8541 81.5135 43.9441C81.504 44.0038 81.4939 44.0633 81.4838 44.1227C81.4707 44.1988 81.4574 44.2747 81.4433 44.3507C81.4298 44.4233 81.4161 44.4955 81.4017 44.5678C81.3899 44.6266 81.3778 44.6854 81.3654 44.7441C79.7987 52.1599 73.2038 57.7431 65.3286 57.7431H56.2249L50.7872 33.8785C50.2956 31.7203 48.6105 30.1189 46.5149 29.6961V26.6941L48.5406 27.5247C50.9862 28.5274 52.8005 30.6807 53.3937 33.2849L58.3576 55.07H65.3286C72.8919 55.07 79.0455 48.9164 79.0455 41.3529C79.0455 36.6279 77.2629 32.5455 73.8905 29.5474C70.557 26.5834 65.9299 24.9513 60.8616 24.9513H48.5183H46.5151V22.278H60.8616C71.9726 22.278 80.2818 29.0589 81.5498 38.7415C81.565 38.8582 81.5788 38.9754 81.5919 39.0929C81.5999 39.1646 81.6089 39.236 81.6163 39.308C81.636 39.506 81.6529 39.7048 81.6669 39.9041C81.6708 39.9593 81.6739 40.015 81.6773 40.0704C81.6873 40.2311 81.6954 40.3921 81.7019 40.5534C81.704 40.6102 81.7065 40.667 81.7082 40.7238C81.7146 40.9333 81.7189 41.1434 81.7189 41.3532C81.7188 41.4984 81.7167 41.644 81.7128 41.7897ZM53.2978 27.6238H60.8613C65.2741 27.6238 69.2703 29.0162 72.1141 31.5446C74.8997 34.0212 76.372 37.4126 76.372 41.3524C76.372 47.442 71.418 52.3962 65.3284 52.3962H60.4902L56.0004 32.6904C55.5606 30.7615 54.6144 29.0188 53.2978 27.6238ZM85.2773 43.8418H84.2298C84.2302 43.839 84.2305 43.836 84.2309 43.833C84.2567 43.6349 84.2795 43.4355 84.2991 43.2357C84.301 43.2158 84.3024 43.1961 84.3043 43.1763C84.3203 43.0073 84.3342 42.8375 84.3458 42.6672C84.3492 42.6173 84.3521 42.5674 84.3553 42.5173C84.3641 42.3722 84.3711 42.2265 84.3768 42.0806C84.3787 42.0288 84.3812 41.9767 84.3826 41.9249C84.3882 41.7347 84.3919 41.544 84.3919 41.3524C84.3919 41.1107 84.387 40.87 84.3794 40.6304C84.3773 40.5636 84.3746 40.4972 84.3718 40.4302C84.3645 40.2456 84.355 40.0614 84.3432 39.8781C84.3404 39.8329 84.3393 39.7876 84.336 39.7426H85.2771C86.4072 39.7426 87.3265 40.6621 87.3265 41.792C87.3265 42.9219 86.4074 43.8418 85.2773 43.8418Z" fill="black"/>
<path d="M75.9199 0V20.3595H78.5932V2.67328H83.0486V27.515H85.7218V0H75.9199Z" fill="black"/>
<path d="M83.0491 54.3447V73.5151C83.0491 81.1308 76.853 87.3269 69.2372 87.3269C61.6215 87.3269 55.4254 81.1308 55.4254 73.5151V70.3962H59.8808V73.5151C59.8808 78.6743 64.0779 82.8716 69.2372 82.8716C74.3966 82.8716 78.5937 78.6744 78.5937 73.5151V61.0963H75.9204V73.5151C75.9204 77.2003 72.9225 80.1983 69.2372 80.1983C65.552 80.1983 62.554 77.2003 62.554 73.5151V70.3962H64.7817V67.7229H62.554H52.7521H50.168V70.3962H52.7521V73.5151C52.7521 82.6051 60.1472 90.0002 69.2372 90.0002C78.3272 90.0002 85.7224 82.6051 85.7224 73.5151V54.3447H83.0491Z" fill="black"/>
<path d="M20.5837 7.84155C18.0778 7.84155 16.0391 9.88026 16.0391 12.386C16.0391 14.8918 18.0778 16.9305 20.5837 16.9305C23.0896 16.9305 25.1282 14.8918 25.1282 12.386C25.1282 9.88026 23.0896 7.84155 20.5837 7.84155ZM20.5837 14.2574C19.5519 14.2574 18.7123 13.418 18.7123 12.386C18.7123 11.354 19.5517 10.5147 20.5837 10.5147C21.6155 10.5147 22.4551 11.354 22.4551 12.386C22.4551 13.418 21.6155 14.2574 20.5837 14.2574Z" fill="black"/>
<path d="M5.79217 0C2.5984 0 0 2.5984 0 5.79217C0 8.98594 2.5984 11.5843 5.79217 11.5843C8.98594 11.5843 11.5843 8.98594 11.5843 5.79217C11.5843 2.5984 8.98576 0 5.79217 0ZM5.79217 8.91088C4.0725 8.91088 2.67328 7.51166 2.67328 5.79199C2.67328 4.07232 4.0725 2.67311 5.79217 2.67311C7.51184 2.67311 8.91105 4.07232 8.91105 5.79199C8.91105 7.51166 7.51166 8.91088 5.79217 8.91088Z" fill="black"/>
</svg>
