<svg width="22" height="24" viewBox="0 0 22 24" fill="none" xmlns="http://www.w3.org/2000/svg">
<path d="M12.5876 23.9618C5.84518 23.9618 0.359985 18.5998 0.359985 12.0002C0.359985 5.47338 5.59599 0.223374 12.2768 0.0609742L13.254 0.0385742L12.5764 0.741374C11.0314 2.34419 9.98839 4.3635 9.57556 6.55109C9.16272 8.73868 9.39805 10.9992 10.2526 13.0549C11.1072 15.1105 12.5437 16.8717 14.3857 18.1219C16.2277 19.3722 18.3949 20.057 20.6208 20.0922L21.64 20.1202L20.884 20.8034C18.6061 22.8489 15.6491 23.9746 12.5876 23.9618V23.9618ZM11.3388 0.926174C5.55958 1.52537 1.16359 6.22658 1.16359 12.0002C1.16359 18.1462 6.28758 23.147 12.5876 23.147C15.1121 23.1573 17.5706 22.3411 19.5876 20.823C17.3892 20.5999 15.2924 19.7854 13.5198 18.466C11.7473 17.1467 10.3653 15.3718 9.5207 13.3299C8.6761 11.2881 8.40045 9.05554 8.72303 6.86956C9.04562 4.68359 9.95439 2.62584 11.3528 0.914974L11.3388 0.926174Z" fill="white"/>
</svg>
