<svg width="94" height="83" viewBox="0 0 94 83" fill="none" xmlns="http://www.w3.org/2000/svg">
<path fill-rule="evenodd" clip-rule="evenodd" d="M61.7196 5.06567C60.4266 5.06567 59.3758 4.01562 59.3758 2.72192C59.3954 1.42822 60.4266 0.378174 61.7196 0.378174C63.0126 0.378174 64.0633 1.42822 64.0633 2.72192C64.0633 4.01562 63.0126 5.06567 61.7196 5.06567ZM25.8309 14.4221C23.9755 14.4221 22.4755 12.9221 22.4755 11.0659C22.4755 9.20972 23.9755 7.70972 25.8309 7.70972C27.6883 7.70972 29.1883 9.20972 29.1883 11.0659C29.1883 12.9221 27.6883 14.4221 25.8309 14.4221ZM25.8309 11.7971C25.9735 11.7971 26.1044 11.7598 26.2157 11.6941C26.4266 11.5679 26.5633 11.3372 26.5633 11.0659C26.5633 10.8745 26.495 10.7031 26.3798 10.5747C26.3309 10.52 26.2743 10.4731 26.2098 10.4355C26.1005 10.3713 25.9715 10.3347 25.8309 10.3347C25.6317 10.3347 25.4559 10.4084 25.327 10.531C25.1864 10.6633 25.1005 10.8521 25.1005 11.0659C25.1005 11.4785 25.4188 11.7971 25.8309 11.7971ZM90.37 34.4656C88.8895 34.1094 87.3524 34.6719 86.4696 35.9094C85.9442 36.623 85.4188 37.3113 84.8876 37.969C84.6219 38.2964 84.3563 38.6165 84.0887 38.9282C83.245 37.6345 81.9891 36.6594 80.5458 36.1345C79.6258 32.8157 76.1766 30.8657 72.8583 31.7844C71.6571 32.1218 70.6083 32.7969 69.8016 33.7344C68.9383 34.7468 68.4149 36.022 68.3016 37.3533C66.7645 38.0845 65.452 39.2095 64.5321 40.6345C63.8954 40.5781 63.2587 40.5969 62.62 40.7095C61.3075 38.2344 59.3954 36.1345 57.0712 34.5969C58.4012 33.4907 59.5262 32.1406 60.3895 30.6218C62.9383 30.3782 64.8133 28.1282 64.5712 25.5781C64.4383 24.0781 63.5575 22.7283 62.245 21.9783C61.5887 14.8906 55.9071 9.32202 48.8212 8.77808C48.7997 8.771 48.7743 8.7666 48.7489 8.76392L48.6903 8.76025L48.6337 8.75952C48.3329 8.74072 48.0145 8.72192 47.7137 8.72192C40.1766 8.72192 33.8758 14.4595 33.1649 21.9783C30.952 23.2532 30.1825 26.0845 31.4579 28.3157C32.2079 29.6094 33.5399 30.4719 35.0399 30.6218C35.9012 32.1406 37.0262 33.4719 38.3758 34.5969C36.6141 35.7595 35.0946 37.2595 33.8954 38.9844C32.3954 38.3281 30.7274 38.0469 29.0946 38.2156C27.9325 36.022 25.2137 35.197 23.0204 36.3594C20.8837 37.5032 20.0399 40.1282 21.1083 42.3032C20.0946 42.3782 19.12 42.6594 18.2391 43.1658C15.2196 40.4094 10.5321 40.6345 7.79577 43.6531C6.38952 45.2095 5.69616 47.272 5.90124 49.3718C4.86999 49.7468 3.80163 50.1594 2.73327 50.6282C1.30749 51.2468 0.463737 52.7468 0.688346 54.2844C0.858268 55.3345 1.49499 56.272 2.41491 56.7969C3.16491 57.2283 4.06335 57.3406 4.9071 57.1157L6.4071 66.6033C6.4071 66.6218 6.4071 66.6406 6.42663 66.6594C8.2821 75.6406 16.1766 82.0906 25.3641 82.1282H69.0516C78.7821 82.1094 86.995 74.8718 88.2137 65.2156L90.7645 43.2969C90.7821 43.1094 90.7645 42.9219 90.7079 42.7532C91.036 42.3574 91.3602 41.9517 91.6844 41.5359L92.3368 40.7L92.62 40.3345C92.9442 39.8887 93.159 39.3882 93.2587 38.8652C93.3446 38.4207 93.3446 37.96 93.2587 37.5032C92.995 36.0032 91.87 34.8032 90.37 34.4656ZM64.9071 43.3533C65.4891 43.4844 66.1083 43.2219 66.37 42.6782C67.1395 41.1782 68.452 40.0344 70.0458 39.4719C70.6083 39.2656 70.9637 38.7219 70.9071 38.1218C70.7391 36.1345 72.2196 34.3718 74.2079 34.2031C76.0633 34.0532 77.7508 35.3281 78.0712 37.1658C78.0712 37.2219 78.0887 37.2781 78.0887 37.3345C78.1454 37.897 78.5575 38.3469 79.12 38.4783C80.5087 38.7781 81.6708 39.7344 82.2333 41.0281C78.7821 44.6843 75.1649 47.3281 71.2821 49.0344C65.5262 51.5657 59.1337 52.0532 51.745 50.5532L50.5458 50.3093V49.2219V49.1094C50.3583 46.6907 52.1571 44.572 54.577 44.3845C55.8133 44.2908 57.0321 44.7219 57.952 45.5657C58.4774 46.072 59.3016 46.0344 59.8075 45.5095C59.8505 45.4658 59.8837 45.4224 59.9208 45.3701L59.9579 45.322C60.5946 44.3657 61.5516 43.6719 62.6766 43.3906C63.1063 43.2727 63.536 43.2222 63.9598 43.2322C64.2782 43.2397 64.5946 43.281 64.9071 43.3533ZM36.8661 28.4597C36.8075 28.3872 36.7411 28.3218 36.6688 28.2642C36.4403 28.082 36.1532 27.9783 35.8446 27.9783H35.7137L35.6473 27.9824L35.5731 27.9927L35.5087 27.9968C34.4012 27.9968 33.5008 27.0969 33.5008 25.9907C33.5008 25.1282 34.0458 24.3594 34.87 24.0781C35.3954 23.9094 35.7508 23.4219 35.7704 22.8782C35.9383 18.0969 38.9383 13.8594 43.4012 12.1531C42.8212 13.522 42.9325 15.0781 43.6825 16.3718C44.5633 18.0032 46.2508 19.0532 48.1083 19.072C48.2626 19.072 48.4169 19.0564 48.5868 19.0396L48.6337 19.0344C49.6649 18.9219 50.5829 18.3406 51.1258 17.4783C51.7274 16.5593 51.8758 15.4343 51.5399 14.3845C51.3641 13.7986 51.0262 13.2859 50.5731 12.8965C50.5145 12.8464 50.454 12.7983 50.3915 12.7524C50.1669 12.5847 49.9149 12.4456 49.6454 12.3406C48.8016 12.022 47.8641 12.0969 47.0946 12.5469C46.8876 12.6628 46.7235 12.8264 46.6102 13.0156C46.3739 13.408 46.3485 13.9106 46.5887 14.3281C46.9462 14.9656 47.7508 15.1907 48.37 14.8345C48.3798 14.8345 48.3856 14.8293 48.3915 14.8245C48.3954 14.8201 48.3993 14.8157 48.4071 14.8157C48.454 14.7876 48.5067 14.7734 48.5594 14.7712C48.6102 14.769 48.661 14.7783 48.7079 14.7969C48.8758 14.8718 48.9891 15.022 49.0458 15.2095C49.1395 15.4907 49.0829 15.8093 48.9325 16.0532C48.9071 16.0938 48.8778 16.1316 48.8465 16.1663C48.8055 16.2117 48.7606 16.252 48.7098 16.2866C48.6063 16.3596 48.4852 16.4077 48.3524 16.4282C47.8446 16.4873 47.3895 16.363 47.0087 16.145C46.6825 15.9575 46.411 15.7004 46.2059 15.4312C46.1219 15.3206 46.0497 15.2078 45.9891 15.0969C45.8212 14.7969 45.3329 13.7283 46.0829 12.772C46.5301 12.2344 47.1102 11.8279 47.7587 11.5942C47.8524 11.5608 47.9462 11.5308 48.0438 11.5046L48.2255 11.4592C48.3837 11.4243 48.5438 11.3994 48.7079 11.3845C54.7821 11.8345 59.5262 16.7844 59.7333 22.8782C59.745 23.2305 59.8993 23.5591 60.1493 23.793C60.284 23.9199 60.4481 24.0188 60.6337 24.0781C61.6825 24.4343 62.2645 25.5593 61.9071 26.6282C61.8719 26.7317 61.829 26.8311 61.7801 26.9258C61.4325 27.5854 60.7508 28.0156 59.995 28.0156L59.8817 28.0125L59.8348 28.0066L59.7899 27.9968C59.245 27.9407 58.7196 28.2219 58.4774 28.7095C57.5008 30.6782 55.9833 32.3281 54.1258 33.4907C54.0321 33.5281 53.9579 33.5845 53.8837 33.6406C50.1141 35.8718 45.4266 35.8718 41.6571 33.6406C41.62 33.6121 41.577 33.5833 41.534 33.5569L41.4149 33.4907C39.5204 32.3469 38.0008 30.6782 37.0262 28.7095C36.9813 28.6191 36.9266 28.5356 36.8661 28.4597ZM40.7958 36.2095C45.1454 38.5344 50.3583 38.5344 54.7079 36.2095C56.9774 37.4844 58.87 39.3594 60.1649 41.6282C59.9676 41.7434 59.7782 41.866 59.5965 41.9968C59.4344 42.1138 59.2762 42.2375 59.1258 42.3684C58.9794 42.4958 58.8387 42.6301 58.702 42.772C55.4012 40.7283 51.0712 41.7219 49.0262 45.022C48.2391 46.2781 47.8837 47.7407 47.9774 49.2219V49.7468L45.5965 49.271L45.2391 49.1987L45.1102 49.1724L45.0712 49.1646L43.3075 48.8093C43.7587 47.197 43.327 45.4531 42.1454 44.2532L41.9774 44.0657C41.4696 43.447 41.077 42.7344 40.8329 41.9656C40.2899 40.4094 38.9774 39.2468 37.3641 38.9094C38.3387 37.8406 39.5008 36.9219 40.7958 36.2095ZM12.2958 43.9531C14.077 43.5593 15.9325 44.2344 17.0575 45.697C17.202 45.8818 17.3837 46.0173 17.5829 46.1018C17.745 46.1707 17.9188 46.2053 18.0926 46.2051C18.3758 46.2048 18.659 46.1118 18.8954 45.9219L18.952 45.8657C19.4579 45.4158 20.077 45.1157 20.7333 44.9844C21.1649 44.8906 21.6141 44.8718 22.0633 44.9282C22.3876 44.9688 22.7118 44.9287 23.0106 44.8186C23.4032 44.6741 23.7508 44.4089 23.995 44.0469L24.0145 44.0281C24.5204 43.2595 24.4266 42.2468 23.7899 41.572C23.0946 40.822 23.1337 39.6406 23.8837 38.947C24.6337 38.2532 25.8133 38.2908 26.5087 39.0408C26.62 39.1606 26.7157 39.2942 26.7919 39.439C26.8719 39.5886 26.9286 39.7505 26.9579 39.9219C27.1083 40.6345 27.8016 41.0845 28.5145 40.9343C29.7704 40.6719 31.0633 40.7468 32.2821 41.1594C31.87 41.8718 31.6454 42.6782 31.6454 43.522C31.6454 44.2532 32.2274 44.8345 32.9579 44.8345C33.6883 44.8345 34.2704 44.2532 34.2704 43.522C34.2704 42.3782 35.2079 41.4407 36.3524 41.4407C37.2333 41.4407 38.0204 42.0032 38.3212 42.8281C38.6766 43.897 39.2391 44.9094 39.952 45.772L40.1395 45.9968L40.1571 46.0161C40.1688 46.0352 40.1864 46.0583 40.2137 46.072C40.7958 46.6531 40.9833 47.5344 40.6825 48.3032C28.5321 46.0156 19.2333 45.1719 8.50866 48.4719C8.58288 46.2781 10.1571 44.4219 12.2958 43.9531ZM3.74499 54.4719C3.52038 54.3406 3.36999 54.1157 3.31335 53.8533C3.25866 53.4968 3.44616 53.1406 3.7821 53.0095C10.9833 49.9531 17.5262 48.697 25.0458 48.9407C29.995 49.1094 35.1708 49.9158 41.0946 51.0408C43.5712 51.5095 46.1962 52.0532 48.9696 52.6157H48.9891L49.3837 52.6907L51.2391 53.0657C54.0145 53.647 56.8446 53.947 59.6766 53.9656C69.202 53.9656 77.3016 50.1782 84.5008 42.397C84.5399 42.3594 84.577 42.322 84.6141 42.2656C86.0204 40.7283 87.3524 39.0969 88.5712 37.4094C88.8329 37.0344 89.3212 36.8657 89.7508 36.9783C90.202 37.072 90.5575 37.447 90.6337 37.9158C90.6883 38.1782 90.6512 38.4595 90.5008 38.7031C84.5946 46.3906 79.495 50.947 73.9637 53.4595C68.0946 56.1218 61.4208 56.7031 52.3075 55.3345C48.5516 54.7778 45.1161 54.1409 41.8133 53.5278L41.0399 53.3845C34.0829 52.0906 27.8758 50.947 21.6883 50.947C16.1024 50.947 10.495 51.8845 4.32702 54.4719C4.13952 54.6033 3.91491 54.5845 3.74499 54.4719ZM85.6454 64.8594C84.577 73.2031 77.4891 79.447 69.0887 79.4656H25.4012C17.4891 79.447 10.6649 73.8782 9.05163 66.1345L7.49499 56.2344C7.49499 56.2158 7.49108 56.197 7.48717 56.1782C7.48327 56.1594 7.47741 56.1406 7.47741 56.1218C18.7821 51.9783 28.0458 53.6843 40.5887 56.0095L41.5868 56.1926C44.8583 56.7932 48.243 57.4148 51.952 57.9595C54.952 58.4282 58.0087 58.6907 61.0458 58.7095C66.3895 58.7095 70.9071 57.7908 75.0887 55.897C79.4579 53.9282 83.5262 50.8157 87.8212 46.147L85.6454 64.8594ZM41.4012 21.2278C41.0497 20.9023 40.5809 20.7034 40.0633 20.7034C38.9755 20.7034 38.0946 21.5847 38.0946 22.6721C38.0946 23.7595 38.9755 24.6409 40.0633 24.6409C41.1317 24.6597 42.0321 23.7783 42.0321 22.6721C42.0321 22.1013 41.7899 21.5874 41.4012 21.2278ZM57.4071 22.6909C57.4071 23.7783 56.5262 24.6597 55.4383 24.6597C54.3505 24.6597 53.4696 23.7783 53.4696 22.6909C53.4696 21.6035 54.3505 20.7222 55.4383 20.7222C56.5262 20.7222 57.4071 21.6035 57.4071 22.6909ZM41.5829 27.9221C41.6024 31.2971 44.3387 33.9971 47.7137 33.9783C51.0516 33.9597 53.7508 31.2595 53.7704 27.9221C53.7704 27.1909 53.1883 26.6096 52.4579 26.6096C51.7274 26.6096 51.1454 27.1909 51.1454 27.9221C51.1258 29.8347 49.5712 31.3909 47.6395 31.3721C45.745 31.3533 44.2079 29.8159 44.1883 27.9221C44.1883 27.1909 43.6083 26.6096 42.8758 26.6096C42.1454 26.6096 41.5829 27.2097 41.5829 27.9221ZM86.6747 23.1033C84.2567 23.1033 82.288 21.1345 82.288 18.7158C82.288 16.2971 84.2567 14.3472 86.6747 14.3284C89.0946 14.3284 91.0633 16.2971 91.0633 18.7158C91.0633 21.1345 89.0946 23.1033 86.6747 23.1033ZM86.6747 20.4783C87.6512 20.4783 88.4383 19.6909 88.4383 18.7158C88.4188 17.7595 87.6512 16.9722 86.6747 16.9534C85.7001 16.9534 84.913 17.741 84.913 18.7158C84.913 19.6909 85.7001 20.4783 86.6747 20.4783ZM10.3641 24.8657C10.3641 27.2844 12.3329 29.2532 14.7508 29.2532C17.1708 29.2532 19.1395 27.2844 19.1395 24.8657C19.1395 22.447 17.1708 20.4783 14.7508 20.4783C12.3329 20.4783 10.3837 22.447 10.3641 24.8657ZM16.5145 24.8657C16.5145 25.2292 16.4051 25.5669 16.2176 25.8472C15.9012 26.3186 15.3641 26.6282 14.7508 26.6282C13.7762 26.6282 12.9891 25.8408 12.9891 24.8657C12.9891 23.8909 13.7762 23.1033 14.7508 23.1033C15.7274 23.1033 16.5145 23.8909 16.5145 24.8657ZM74.3563 15.8284C74.3563 17.1221 75.4071 18.1721 76.7001 18.1721C77.993 18.1721 79.0438 17.1221 79.0438 15.8284C79.0438 14.5347 77.993 13.4846 76.7001 13.4846C75.4071 13.4846 74.3563 14.5347 74.3563 15.8284Z" fill="black"/>
</svg>
