<svg width="78" height="78" viewBox="0 0 78 78" fill="none" xmlns="http://www.w3.org/2000/svg">
<path d="M75.875 15.4846C71.395 15.4846 67.75 19.1296 67.75 23.6096V69.2346C67.75 72.6809 64.9462 75.4846 61.5 75.4846C58.0538 75.4846 55.25 72.6809 55.25 69.2346V68.9034C61.4063 62.9859 65.25 54.6784 65.25 45.4846C65.25 36.3571 61.4725 27.9934 55.25 22.0246V8.60962C55.25 4.12962 51.605 0.484619 47.125 0.484619C42.645 0.484619 39 4.12962 39 8.60962V11.9646C38.6075 11.8246 38.19 11.7346 37.75 11.7346C36.7862 11.7346 35.915 12.1109 35.25 12.7096C34.585 12.1096 33.7138 11.7346 32.75 11.7346C31.7862 11.7346 30.915 12.1109 30.25 12.7096C29.585 12.1096 28.7138 11.7346 27.75 11.7346C26.1625 11.7346 24.81 12.7309 24.2638 14.1271C10.0938 17.9484 0.25 30.7284 0.25 45.4846C0.25 63.4059 14.8288 77.9846 32.75 77.9846C40.3662 77.9846 47.3738 75.3446 52.92 70.9409C53.7163 74.9509 57.26 77.9846 61.5 77.9846C66.3237 77.9846 70.25 74.0584 70.25 69.2346V23.6096C70.25 20.5084 72.7738 17.9846 75.875 17.9846H77.75V15.4846H75.875ZM62.75 45.4846C62.75 50.4984 61.5075 55.2246 59.3237 59.3834L49.5575 53.7446C50.7887 51.2484 51.5 48.4509 51.5 45.4846C51.5 42.5534 50.8125 39.7384 49.5725 37.2159L59.335 31.5796C61.5175 35.7634 62.75 40.4984 62.75 45.4846ZM58.0875 29.4121L48.3262 35.0471C46.9775 33.0346 45.235 31.2884 43.1825 29.9146L48.8238 20.1446C52.5838 22.5234 55.7363 25.6984 58.0875 29.4121V29.4121ZM41.5 8.60962C41.5 5.50837 44.0238 2.98462 47.125 2.98462C50.2262 2.98462 52.75 5.50837 52.75 8.60962V19.8359C49.4812 17.2896 45.6763 15.3671 41.5 14.2034V8.60962ZM41.5 19.2346V16.8059C43.3037 17.3534 45.0287 18.0496 46.6562 18.8971L41.5 27.8296V19.2346ZM36.5 15.4846C36.5 14.7946 37.06 14.2346 37.75 14.2346C38.44 14.2346 39 14.7946 39 15.4846V19.2346V27.9846C39 28.6746 38.44 29.2346 37.75 29.2346C37.06 29.2346 36.5 28.6746 36.5 27.9846V15.4846ZM31.5 15.4846C31.5 14.7946 32.06 14.2346 32.75 14.2346C33.44 14.2346 34 14.7946 34 15.4846V27.9846C34 28.6746 33.44 29.2346 32.75 29.2346C32.06 29.2346 31.5 28.6746 31.5 27.9846V15.4846ZM26.5 15.4846C26.5 14.7946 27.06 14.2346 27.75 14.2346C28.44 14.2346 29 14.7946 29 15.4846V27.9846C29 28.6746 28.44 29.2346 27.75 29.2346C27.06 29.2346 26.5 28.6746 26.5 27.9846V15.4846ZM25.4875 30.9546C26.1188 31.4371 26.8962 31.7346 27.75 31.7346C28.7138 31.7346 29.585 31.3584 30.25 30.7596C30.915 31.3596 31.7862 31.7346 32.75 31.7346C33.7138 31.7346 34.585 31.3584 35.25 30.7596C35.915 31.3596 36.7862 31.7346 37.75 31.7346C38.605 31.7346 39.3838 31.4359 40.015 30.9534C45.5 33.6959 49 39.2959 49 45.4846C49 54.4446 41.71 61.7346 32.75 61.7346C23.79 61.7346 16.5 54.4446 16.5 45.4846C16.5 39.3121 20.0063 33.6984 25.4875 30.9546ZM24 16.8059V27.8296L18.8438 18.8984C20.4713 18.0496 22.1963 17.3534 24 16.8059V16.8059ZM16.6762 20.1446L22.3175 29.9171C20.2675 31.2921 18.5287 33.0396 17.18 35.0534L7.4125 29.4121C9.76375 25.6984 12.9162 22.5234 16.6762 20.1446V20.1446ZM2.75 45.4846C2.75 40.4984 3.9825 35.7634 6.165 31.5796L15.9325 37.2196C14.6912 39.7446 14 42.5584 14 45.4846C14 48.4509 14.7112 51.2484 15.9425 53.7446L6.17625 59.3834C3.9925 55.2246 2.75 50.4984 2.75 45.4846V45.4846ZM7.43125 61.5459L17.18 55.9171C18.5425 57.9446 20.29 59.6909 22.3162 61.0534L16.6875 70.8021C12.9662 68.4334 9.80125 65.2684 7.43125 61.5459V61.5459ZM32.75 75.4846C27.7362 75.4846 23.01 74.2421 18.8512 72.0584L24.49 62.2921C26.9863 63.5234 29.7838 64.2346 32.75 64.2346C35.7162 64.2346 38.5138 63.5234 41.01 62.2921L46.6487 72.0584C42.49 74.2421 37.7638 75.4846 32.75 75.4846ZM48.8112 70.8034L43.1825 61.0546C45.21 59.6921 46.9563 57.9446 48.3188 55.9184L58.0675 61.5471C55.6988 65.2684 52.5337 68.4334 48.8112 70.8034Z" fill="black"/>
</svg>
