<svg width="76" height="77" viewBox="0 0 76 77" fill="none" xmlns="http://www.w3.org/2000/svg">
<path d="M72.069 0.234619H3.93103C1.76014 0.234619 0 1.99476 0 4.16565V72.3036C0 74.4745 1.76014 76.2346 3.93103 76.2346H72.069C74.2399 76.2346 76 74.4745 76 72.3036V4.16565C76 1.99476 74.2399 0.234619 72.069 0.234619ZM73.3793 4.16565V36.9243H61.2196C60.7231 36.9243 60.2695 37.2045 60.0474 37.6485C59.8254 38.0926 59.8734 38.6236 60.1709 39.021C61.1115 40.314 61.608 41.8771 61.5862 43.476C61.5862 47.0884 59.2355 50.0277 56.3448 50.0277C53.4541 50.0277 51.1034 47.0884 51.1034 43.476C51.0811 41.8771 51.5763 40.3147 52.5162 39.021C52.8137 38.6236 52.8617 38.0926 52.6396 37.6485C52.4176 37.2045 51.964 36.9243 51.4675 36.9243H39.3103V26.9956C40.5599 27.4985 41.8946 27.7551 43.2414 27.7519C48.2991 27.7519 52.4138 24.2258 52.4138 19.8898C52.4138 15.5538 48.2991 12.0277 43.2414 12.0277C41.8946 12.0245 40.5599 12.2811 39.3103 12.784V2.85531H72.069C72.7926 2.85531 73.3793 3.44202 73.3793 4.16565V4.16565ZM2.62069 4.16565C2.62069 3.44202 3.2074 2.85531 3.93103 2.85531H36.6897V15.015C36.6897 15.5115 36.9699 15.9652 37.4139 16.1872C37.858 16.4092 38.389 16.3612 38.7863 16.0637C40.08 15.1238 41.6425 14.6279 43.2414 14.6484C46.8538 14.6484 49.7931 16.9991 49.7931 19.8898C49.7931 22.7805 46.8538 25.1312 43.2414 25.1312C41.6431 25.1529 40.08 24.6571 38.7863 23.7185C38.389 23.4209 37.858 23.373 37.4139 23.595C36.9699 23.817 36.6897 24.2706 36.6897 24.7671V36.9243H26.761C27.2639 35.6747 27.5204 34.3401 27.5172 32.9932C27.5172 27.9368 23.9912 23.8208 19.6552 23.8208C15.3191 23.8208 11.7931 27.9368 11.7931 32.9932C11.7899 34.3401 12.0465 35.6747 12.5494 36.9243H2.62069V4.16565ZM2.62069 72.3036V39.545H14.7804C15.2769 39.545 15.7305 39.2647 15.9526 38.8207C16.1746 38.3767 16.1266 37.8456 15.8291 37.4483C14.8885 36.1552 14.392 34.5921 14.4138 32.9932C14.4138 29.3808 16.7645 26.4415 19.6552 26.4415C22.5459 26.4415 24.8966 29.3808 24.8966 32.9932C24.9189 34.5921 24.4237 36.1546 23.4838 37.4483C23.1863 37.8456 23.1383 38.3767 23.3604 38.8207C23.5824 39.2647 24.036 39.545 24.5325 39.545H36.6897V49.4736C35.4401 48.9707 34.1054 48.7142 32.7586 48.7174C27.7009 48.7174 23.5862 52.2434 23.5862 56.5794C23.5862 60.9155 27.7009 64.4415 32.7586 64.4415C34.1054 64.4447 35.4401 64.1881 36.6897 63.6853V73.6139H3.93103C3.2074 73.6139 2.62069 73.0272 2.62069 72.3036ZM73.3793 72.3036C73.3793 73.0272 72.7926 73.6139 72.069 73.6139H39.3103V61.4542C39.3103 60.9577 39.0301 60.5041 38.5861 60.2821C38.142 60.06 37.611 60.108 37.2137 60.4056C35.92 61.3454 34.3575 61.8413 32.7586 61.8208C29.1462 61.8208 26.2069 59.4701 26.2069 56.5794C26.2069 53.6888 29.1462 51.3381 32.7586 51.3381C34.3569 51.3163 35.92 51.8122 37.2137 52.7508C37.611 53.0483 38.142 53.0963 38.5861 52.8743C39.0301 52.6523 39.3103 52.1986 39.3103 51.7021V39.545H49.239C48.7361 40.7945 48.4796 42.1292 48.4828 43.476C48.4828 48.5325 52.0088 52.6484 56.3448 52.6484C60.6809 52.6484 64.2069 48.5325 64.2069 43.476C64.2101 42.1292 63.9535 40.7945 63.4506 39.545H73.3793V72.3036Z" fill="black"/>
</svg>
