<svg width="90" height="91" viewBox="0 0 90 91" fill="none" xmlns="http://www.w3.org/2000/svg">
<path d="M16.2401 22.2356L45.0409 1.5M16.2401 22.2356H27.6088M16.2401 22.2356C15.2363 24.7387 15.7145 25.7995 16.2401 27.7989H27.6088M73.3364 22.2356L45.0409 1.5M73.3364 22.2356C73.913 24.469 73.7863 25.6737 73.3364 27.7989H61.715M73.3364 22.2356H61.715M45.0409 1.5L38.9775 22.2356M45.0409 1.5L27.6088 22.2356M45.0409 1.5L50.0936 22.2356M45.0409 1.5L61.715 22.2356M38.9775 22.2356H27.6088M38.9775 22.2356H50.0936M38.9775 22.2356V27.7989M27.6088 22.2356V27.7989M50.0936 22.2356H61.715M50.0936 22.2356V27.7989M61.715 22.2356V27.7989M61.715 27.7989H50.0936M50.0936 27.7989H44.5356M38.9775 27.7989H27.6088M38.9775 27.7989H44.5356M44.5356 27.7989V55.6149M44.5356 55.6149H18.7665C18.1908 57.3542 18.253 58.3614 18.7665 60.1667H39.9881M44.5356 55.6149H70.3047C70.9252 57.6236 70.8252 58.5844 70.3047 60.1667H49.0831M39.9881 60.1667V84.4425M39.9881 60.1667H49.0831M39.9881 84.4425H49.0831M39.9881 84.4425H33.4195C32.2327 86.3238 32.4279 87.4455 33.4195 89.5H56.157C56.7711 87.5359 56.7976 86.4076 56.157 84.4425H49.0831M49.0831 84.4425V60.1667M89 67.7529V44.9943C87.0597 43.9014 86.0776 43.9866 84.4525 44.9943V67.7529M89 67.7529H84.4525M89 67.7529V73.3161M84.4525 67.7529H74.5996H64.7467C63.7813 69.9864 64.0099 71.1899 64.7467 73.3161M64.7467 73.3161H68.7889M64.7467 73.3161V88.9943H68.7889V73.3161M89 73.3161V88.9943H84.9578V73.3161M89 73.3161H84.9578M84.9578 73.3161H68.7889M1 67.7529V44.9943C2.94026 43.9014 3.92236 43.9866 5.5475 44.9943V67.7529M1 67.7529H5.5475M1 67.7529V73.3161M5.5475 67.7529H15.4004H25.2533C26.2188 69.9864 25.9901 71.1899 25.2533 73.3161M25.2533 73.3161H21.2111M25.2533 73.3161V88.9943H21.2111V73.3161M1 73.3161V88.9943H5.04222V73.3161M1 73.3161H5.04222M5.04222 73.3161H21.2111" stroke="black" stroke-width="2"/>
</svg>
