<svg width="74" height="88" viewBox="0 0 74 88" fill="none" xmlns="http://www.w3.org/2000/svg">
<path fill-rule="evenodd" clip-rule="evenodd" d="M66.334 0H1.80078C0.990234 0 0.333984 0.656738 0.333984 1.46655V86.5334C0.333984 87.3433 0.990234 88 1.80078 88H66.334C70.3828 87.9949 73.6621 84.7151 73.668 80.6667V7.33325C73.6621 3.28491 70.3828 0.00512695 66.334 0ZM70.7344 80.6667C70.7344 83.0964 68.7637 85.0667 66.334 85.0667H3.26758V2.93335H66.334C68.7637 2.93335 70.7344 4.90356 70.7344 7.33325V80.6667ZM18.6348 46.8311L18.6719 46.9097C18.6816 46.9219 18.6934 46.9304 18.7051 46.939C18.7148 46.947 18.7266 46.9548 18.7344 46.9656C23.1777 52.51 29.9004 55.7356 37.0059 55.7334C44.1113 55.7312 50.832 52.5022 55.2734 46.9556L55.3008 46.9341C55.3105 46.9272 55.3203 46.9204 55.3281 46.9097L55.3652 46.8311C62.166 38.3125 62.166 26.2209 55.3652 17.7024L55.3281 17.6238L55.2969 17.5952C55.2852 17.5872 55.2734 17.5791 55.2656 17.5679C50.8223 12.0256 44.1035 8.80005 37 8.80005C29.8965 8.80005 23.1758 12.0256 18.7344 17.5679C18.7168 17.5901 18.6895 17.6001 18.6719 17.6238L18.6348 17.7024C11.832 26.2209 11.832 38.3125 18.6348 46.8311ZM20.1758 20.5334C20.7754 20.9165 21.3926 21.271 22.0254 21.5955C22.5645 21.8721 23.1152 22.127 23.6758 22.3596C22.9062 25.1111 22.4707 27.9448 22.3789 30.8H16.541C16.7988 27.1111 18.0566 23.5627 20.1758 20.5334ZM57.459 30.8H51.6211C51.5293 27.9426 51.0938 25.1067 50.3242 22.3538C50.8379 22.1406 51.3438 21.9089 51.8398 21.6592C52.5176 21.3174 53.1797 20.9419 53.8223 20.5334C55.9434 23.5627 57.1992 27.1111 57.459 30.8ZM53.8223 44C52.7129 43.2903 51.543 42.6794 50.3262 42.1738C51.0918 39.4224 51.5273 36.5886 51.6211 33.7334H57.459C57.1992 37.4224 55.9434 40.9707 53.8223 44ZM38.4668 33.7334H48.6895C48.5898 36.2549 48.1953 38.7556 47.5156 41.1855C44.5762 40.2983 41.5352 39.7983 38.4668 39.6997V33.7334ZM38.4668 30.8V24.8718C41.5352 24.7651 44.5762 24.2544 47.5117 23.3521C47.877 24.6511 48.1582 25.9707 48.3574 27.3027C48.5312 28.4607 48.6426 29.6282 48.6895 30.8H38.4668ZM35.5332 30.8H25.3105C25.4102 28.28 25.8027 25.7805 26.4844 23.3521C29.4199 24.2537 32.4629 24.7644 35.5332 24.8718V30.8ZM35.5332 33.7334V39.6997C32.4668 39.7983 29.4258 40.2976 26.4902 41.1855C25.8086 38.7556 25.4121 36.2549 25.3105 33.7334H35.5332ZM35.5332 42.6243V52.6123C32.2266 51.8525 29.3066 48.5835 27.4336 43.9592C30.0664 43.1699 32.7871 42.7209 35.5332 42.6243ZM38.4668 52.6123V42.6257C41.2129 42.7239 43.9336 43.1721 46.5645 43.9607C44.6934 48.5835 41.7715 51.8525 38.4668 52.6123ZM38.4668 21.9092V11.9209C41.7715 12.6809 44.6934 15.95 46.5645 20.5742C43.9336 21.3628 41.2129 21.8118 38.4668 21.9092ZM35.5332 11.9209V21.9077C32.7871 21.8096 30.0664 21.3613 27.4336 20.5728C29.3066 15.95 32.2266 12.6809 35.5332 11.9209ZM22.3789 33.7334C22.4707 36.5908 22.9062 39.4268 23.6758 42.1797C23.0176 42.4526 22.373 42.7561 21.7441 43.0889C21.2109 43.3716 20.6875 43.6755 20.1758 44C18.0566 40.9707 16.7988 37.4224 16.541 33.7334H22.3789ZM22.0469 46.2954C22.8672 45.7883 23.7246 45.3428 24.6133 44.9619C25.3809 46.9634 26.4277 48.8477 27.7207 50.5593C25.5977 49.4763 23.6777 48.0334 22.0469 46.2954ZM46.2793 50.5593C47.5723 48.8477 48.6191 46.9634 49.3867 44.9604C50.2734 45.3428 51.1309 45.7883 51.9512 46.2939C50.3223 48.0334 48.4023 49.4763 46.2793 50.5593ZM51.9609 18.238C51.1387 18.7451 50.2812 19.1907 49.3945 19.5715C48.625 17.5701 47.5781 15.6858 46.2871 13.9741C48.4102 15.0571 50.3301 16.5 51.9609 18.238ZM27.7207 13.9741C26.4258 15.6858 25.3809 17.5701 24.6133 19.573C24.2129 19.4004 23.8184 19.2151 23.4316 19.0171C22.9609 18.7764 22.498 18.5171 22.0469 18.2395C23.6777 16.5 25.5957 15.0571 27.7207 13.9741ZM12.0664 63.0667C12.0664 62.2568 12.7227 61.6001 13.5332 61.6001H60.4668C61.2773 61.6001 61.9336 62.2568 61.9336 63.0667V77.7334C61.9336 78.5435 61.2773 79.2002 60.4668 79.2002H13.5332C13.0547 79.2002 12.6309 78.9717 12.3633 78.6179C12.1777 78.3721 12.0664 78.0657 12.0664 77.7334V63.0667ZM15 64.5334V76.2668H59V64.5334H15Z" fill="black"/>
</svg>
