<svg width="60" height="86" viewBox="0 0 60 86" fill="none" xmlns="http://www.w3.org/2000/svg">
<path fill-rule="evenodd" clip-rule="evenodd" d="M52.6895 0.109533H43.9395C43.8066 0.10636 43.6758 0.121985 43.5508 0.155188C43.3594 0.206213 43.1797 0.298742 43.0254 0.427893C42.7695 0.641272 42.5996 0.940588 42.5488 1.26969C42.0996 4.27457 40.6016 7.02335 38.3184 9.02921C36.0664 11.0119 33.168 12.1044 30.166 12.1022L30.0176 12.0966C23.7051 12.0207 18.3047 7.39322 17.4551 1.28605C17.4062 0.953528 17.2383 0.650061 16.9805 0.433508C16.875 0.344153 16.7578 0.271887 16.6328 0.21842C16.4531 0.142492 16.2578 0.104895 16.0605 0.109533H7.31055C7.00977 0.107092 6.71094 0.124914 6.41406 0.163C6.20898 0.189367 6.00586 0.225256 5.80469 0.270666C5.45117 0.350256 5.10352 0.459143 4.76562 0.59635C4.48828 0.709143 4.21875 0.840246 3.96094 0.988684C3.4668 1.27286 3.00977 1.62076 2.60352 2.02433C2.32227 2.3024 2.06836 2.60441 1.8418 2.92643C1.56836 3.3151 1.33789 3.73307 1.1543 4.1735C0.818359 4.97843 0.644531 5.84171 0.644531 6.71403V79.286C0.644531 80.1584 0.818359 81.0219 1.1543 81.8266C1.49023 82.6315 1.98242 83.362 2.60352 83.976C3.22266 84.5898 3.95703 85.0751 4.76562 85.4037C5.57422 85.7323 6.4375 85.8979 7.31055 85.8908H52.6895C53.5625 85.8979 54.4258 85.7323 55.2344 85.4037C56.043 85.0751 56.7773 84.5898 57.3965 83.976C58.0176 83.362 58.5098 82.6315 58.8457 81.8266C59.0234 81.4027 59.1543 80.9626 59.2402 80.5133C59.3164 80.1098 59.3555 79.6989 59.3555 79.286V6.71403C59.3555 5.84171 59.1816 4.97843 58.8457 4.1735C58.748 3.93912 58.6367 3.7111 58.5117 3.49039C58.4062 3.30289 58.293 3.12052 58.1699 2.94425C58.0391 2.75553 57.8984 2.57389 57.748 2.39957C57.6367 2.27018 57.5195 2.14493 57.3965 2.02433C56.7773 1.41031 56.043 0.924963 55.2344 0.59635C54.4258 0.267737 53.5625 0.102209 52.6895 0.109533ZM52.6895 83.0783H7.31055C6.80859 83.0859 6.30859 82.9933 5.8418 82.8061C5.375 82.6191 4.94922 82.341 4.58984 81.988C4.23242 81.6352 3.94727 81.2148 3.75195 80.7509C3.66016 80.5324 3.58984 80.3063 3.54102 80.0756C3.51367 79.9482 3.49414 79.8195 3.48047 79.6899C3.46484 79.5561 3.45703 79.4213 3.45703 79.286V68.0949L14.7949 68.0177C15.1699 68.0075 15.5254 67.8507 15.7871 67.5812C16.0488 67.3114 16.1934 66.9504 16.1914 66.5751C16.1895 66.1999 16.0391 65.8405 15.7754 65.5739C15.5117 65.307 15.1543 65.1545 14.7695 65.1486L3.45703 65.2824V6.71403C3.45703 6.50504 3.47461 6.29703 3.50781 6.09196C3.55664 5.80338 3.63867 5.52042 3.75195 5.24943C3.83984 5.0402 3.94727 4.83976 4.07031 4.65055C4.21875 4.42008 4.39453 4.20597 4.58984 4.01212C4.94922 3.65934 5.375 3.38126 5.8418 3.19401C6.30859 3.00699 6.80859 2.91447 7.31055 2.92203H14.8887C15.6523 6.07657 17.3652 8.92057 19.7988 11.0688C22.6289 13.5202 26.2383 14.8861 29.9824 14.923C33.7266 14.9787 37.3594 13.641 40.1738 11.1701C42.6348 8.99967 44.3574 6.11661 45.1016 2.92203H52.6895C53.1914 2.91447 53.6914 3.00699 54.1582 3.19401C54.625 3.38126 55.0508 3.65934 55.4102 4.01212C55.7676 4.3649 56.0527 4.78556 56.248 5.24943C56.3496 5.49088 56.4258 5.74161 56.4746 5.99747C56.5195 6.23307 56.543 6.47306 56.543 6.71403V65.2834L45.0605 65.1486C44.6758 65.1549 44.3184 65.3078 44.0566 65.5741C43.793 65.8405 43.6445 66.1991 43.6445 66.5734C43.6387 66.9472 43.7832 67.3075 44.043 67.5756C44.3047 67.8434 44.6602 67.9975 45.0332 68.0033L56.543 68.0961V79.286C56.543 79.4699 56.5293 79.6532 56.5039 79.8341L56.4785 79.986C56.4551 80.1071 56.4258 80.2272 56.3906 80.3456C56.3516 80.4831 56.3027 80.6183 56.248 80.7509C56.0527 81.2148 55.7676 81.6352 55.4082 81.988C55.0508 82.3407 54.625 82.6188 54.1582 82.8061C53.6914 82.9931 53.1914 83.0856 52.6895 83.0783ZM36.584 65.3241H23.2441C22.8711 65.3241 22.5137 65.4723 22.25 65.736C22.1543 65.8315 22.0742 65.9391 22.0098 66.0553C21.8984 66.2604 21.8379 66.4923 21.8379 66.7304C21.8379 67.1034 21.9863 67.4611 22.25 67.7248C22.5137 67.9884 22.8711 68.1366 23.2441 68.1366H36.584C36.957 68.1366 37.3145 67.9884 37.5781 67.7248C37.8418 67.4611 37.9902 67.1034 37.9902 66.7304C37.9902 66.3573 37.8418 65.9997 37.5781 65.736C37.3145 65.4723 36.957 65.3241 36.584 65.3241ZM52.4746 36.6027C53.0547 37.3556 53.3711 38.2792 53.3711 39.2297C53.3711 39.7958 53.2578 40.3561 53.0391 40.8786C52.916 41.1755 52.7598 41.4567 52.5742 41.7174C52.4336 41.9157 52.2754 42.102 52.1016 42.2743C51.7012 42.6735 51.2246 42.9897 50.7012 43.2045C50.1777 43.4196 49.6172 43.5292 49.0508 43.5273H38.8984L30.8164 52.8527C30.6855 53.0092 30.5254 53.1361 30.3418 53.2255C30.1582 53.3149 29.959 53.3644 29.7559 53.371H23.6953C23.6152 53.3695 23.5352 53.3612 23.457 53.3463C23.2949 53.3158 23.1387 53.2575 22.9961 53.1735C22.7852 53.0485 22.6094 52.8708 22.4844 52.6576C22.3613 52.443 22.293 52.2004 22.2891 51.9523C22.2852 51.7043 22.3457 51.4594 22.4629 51.2411L26.6934 43.5273H20.4805C17.6406 43.5387 14.8281 42.9689 12.2168 41.8534L7.47656 39.8449C7.22266 39.7367 7.00781 39.5566 6.85547 39.3268C6.73047 39.1386 6.6543 38.9235 6.62891 38.7004C6.62305 38.6515 6.62109 38.6022 6.62109 38.5526V26.8495C6.62109 26.4735 6.77148 26.113 7.03516 25.8459C7.29883 25.5788 7.6582 25.4264 8.03516 25.4218H10.3809C10.6211 25.4284 10.8555 25.4953 11.0645 25.6164C11.1777 25.6825 11.2812 25.7636 11.373 25.8571C11.4492 25.935 11.5156 26.0216 11.5723 26.1154L14.9707 31.5741H44.5938C45.4043 31.5663 46.1973 31.8031 46.873 32.2533C47.2031 32.4745 47.498 32.7421 47.748 33.0463C48.0078 33.3615 48.2188 33.7157 48.373 34.0983C48.4473 34.2765 48.5625 34.4347 48.709 34.56C48.8574 34.6852 49.0312 34.7743 49.2188 34.82L50.1641 35.0661C51.082 35.3095 51.8945 35.8498 52.4746 36.6027ZM9.60156 28.2343H9.43359V31.5741H11.6504L9.60156 28.2343ZM37.9922 40.7482C38.0801 40.7289 38.168 40.7177 38.2578 40.7148H49.0508C49.4141 40.7226 49.7676 40.5959 50.043 40.3593C50.3203 40.1227 50.5 39.7924 50.5469 39.432C50.5957 39.0714 50.5098 38.7057 50.3047 38.4049C50.0996 38.1042 49.791 37.8893 49.4395 37.8014L48.4941 37.5553C47.8848 37.3935 47.3203 37.0922 46.8477 36.6755C46.373 36.2587 46.002 35.7377 45.7637 35.1535C45.6699 34.9223 45.5078 34.7255 45.2969 34.5885C45.0879 34.4516 44.8438 34.3813 44.5938 34.3866H9.43359V37.6264L13.3242 39.2682C15.5859 40.2328 18.0215 40.7248 20.4805 40.7135H29.0723C29.3184 40.7194 29.5586 40.7887 29.7715 40.9152C29.9824 41.0414 30.1602 41.2201 30.2812 41.4342C30.4062 41.6501 30.4746 41.8942 30.4785 42.1432C30.4824 42.3925 30.4219 42.6386 30.3047 42.8581L26.0742 50.5585H29.1152L37.1973 41.2331C37.3281 41.0766 37.4902 40.9496 37.6719 40.8603C37.7754 40.8102 37.8828 40.7729 37.9922 40.7482Z" fill="black"/>
</svg>
