<svg width="16" height="16" viewBox="0 0 16 16" fill="none" xmlns="http://www.w3.org/2000/svg">
<path fill-rule="evenodd" clip-rule="evenodd" d="M12 1H4C2.34326 1 1 2.34326 1 4V12C1 13.6567 2.34326 15 4 15H12C13.6567 15 15 13.6567 15 12V4C15 2.34326 13.6567 1 12 1ZM4 0C1.79102 0 0 1.79077 0 4V12C0 14.2092 1.79102 16 4 16H12C14.209 16 16 14.2092 16 12V4C16 1.79077 14.209 0 12 0H4ZM8 11C9.65674 11 11 9.65674 11 8C11 6.34326 9.65674 5 8 5C6.34326 5 5 6.34326 5 8C5 9.65674 6.34326 11 8 11ZM8 12C10.209 12 12 10.2092 12 8C12 5.79077 10.209 4 8 4C5.79102 4 4 5.79077 4 8C4 10.2092 5.79102 12 8 12ZM12 4C12.5522 4 13 3.55225 13 3C13 2.44775 12.5522 2 12 2C11.4478 2 11 2.44775 11 3C11 3.55225 11.4478 4 12 4Z" fill="white"/>
</svg>
