<svg width="24" height="16" viewBox="0 0 24 16" fill="none" xmlns="http://www.w3.org/2000/svg">
<path fill-rule="evenodd" clip-rule="evenodd" d="M5 1H19C21.2091 1 23 2.79086 23 5V11C23 13.2091 21.2091 15 19 15H5C2.79086 15 1 13.2091 1 11V5C1 2.79086 2.79086 1 5 1ZM0 5C0 2.23858 2.23858 0 5 0H19C21.7614 0 24 2.23858 24 5V11C24 13.7614 21.7614 16 19 16H5C2.23858 16 0 13.7614 0 11V5ZM10.2684 4.57817L9.5 4.08916V5V11.5V12.3423L10.2394 11.9389L15.7394 8.93895L16.4834 8.53314L15.7684 8.07817L10.2684 4.57817ZM10.5 10.6577V5.91084L14.5166 8.46686L10.5 10.6577Z" fill="white"/>
</svg>
