<svg width="94" height="76" viewBox="0 0 94 76" fill="none" xmlns="http://www.w3.org/2000/svg">
<path d="M20.3623 34.8449C22.8458 34.8492 25.3064 35.3109 27.6221 36.2064L31.9202 27.1313C32.2486 26.4523 32.0357 25.635 31.4176 25.2027L23.0817 19.2463C18.671 18.9502 15.5774 15.3561 14.4755 8.99181C14.2503 7.68481 14.593 6.34412 15.4183 5.30598C16.2435 4.26784 17.4723 3.63119 18.7965 3.55592V3.5215C18.7979 1.79223 20.1996 0.390594 21.9289 0.38916H28.1935C29.9228 0.390594 31.3244 1.79223 31.3259 3.5215V6.65384C31.3244 8.38312 29.9228 9.78475 28.1935 9.78618H21.9289C20.2283 9.7826 18.841 8.42255 18.8037 6.72267C18.4552 6.78003 18.1369 6.95496 17.901 7.21736C17.6085 7.55935 17.4838 8.01461 17.5619 8.45768C18.3936 13.2612 20.2792 15.8085 23.1348 16.1097C23.3972 16.0466 23.6717 16.053 23.9306 16.1297C24.2224 16.1304 24.5142 16.1111 24.8031 16.0724C27.4723 15.7928 29.907 14.4234 31.5316 12.2876C33.3441 9.87867 36.1445 8.41395 39.1571 8.29852V8.21966C39.1585 6.49038 40.5602 5.08946 42.2894 5.08731H51.6865C53.4157 5.08946 54.8174 6.49038 54.8188 8.21966V11.352C54.8174 13.0813 53.4157 14.4829 51.6865 14.4851H42.2894C40.591 14.4815 39.2051 13.1257 39.165 11.428C37.045 11.5434 35.0956 12.6253 33.8775 14.3639C32.2715 16.3972 30.0762 17.8841 27.592 18.6197L33.2344 22.6504C35.0977 23.9617 35.738 26.4301 34.7457 28.4813L33.633 30.8322C41.6671 33.8455 49.0101 38.4504 55.2217 44.3703L57.8687 36.4057C56.5079 35.8228 55.0145 35.6199 53.5477 35.8192C52.0363 35.9132 50.573 35.2643 49.6281 34.0807C48.5778 32.294 48.3161 30.1511 48.9061 28.1644C49.0933 27.4847 49.7113 27.0137 50.416 27.0144H73.9089C74.4345 27.0144 74.9249 27.2775 75.2145 27.7156C77.2506 30.7891 77.2549 33.9193 75.2245 36.3046C73.1397 38.4705 70.2324 39.6477 67.2277 39.5416C65.5307 39.5517 63.8516 39.2018 62.2994 38.5164C61.6965 38.2432 61.1846 38.0038 60.7128 37.7801L58.0952 45.6536C63.5534 43.0002 70.0984 44.1588 74.3147 48.5243C80.8619 45.6981 88.4888 48.2074 92.0807 54.3681C95.6719 60.5288 94.0975 68.4016 88.4121 72.7069C82.7274 77.0122 74.7227 76.3949 69.7657 71.268C63.5591 73.9544 56.3201 71.8423 52.5325 66.2393C48.7448 60.6371 49.4818 53.1314 54.2883 48.3737C54.2037 48.1486 54.1728 47.907 54.1986 47.6689C46.6664 40.6794 39.3048 35.9884 32.283 33.6827L30.4534 37.5457C39.3055 42.6302 43.0143 53.4913 39.1191 62.9277C35.2246 72.3642 24.9357 77.4488 15.0741 74.8097C5.21251 72.1699 -1.16186 62.6266 0.177393 52.5062C1.51665 42.3858 10.1537 34.8284 20.3623 34.8449V34.8449ZM21.9289 6.65384H28.1935V3.5215H21.9289V6.65384ZM42.2894 11.352H51.6865V8.21966H42.2894V11.352ZM63.5921 35.6622C66.6929 37.0653 71.0146 36.4157 72.8393 34.2735C73.8129 33.092 73.8867 31.4093 73.0214 30.1468H51.7467C51.647 30.8479 51.7782 31.5627 52.1209 32.1829C52.2163 32.3084 52.5045 32.6869 53.5484 32.6869C57.293 32.6869 57.5418 32.7371 60.1894 34.0448C60.9853 34.4377 62.0471 34.9632 63.5921 35.6622ZM64.2158 47.375C62.5876 47.3736 60.9802 47.7414 59.5148 48.4497C60.9035 49.8434 62.2915 51.2902 63.7183 52.8869L63.7269 52.8955L63.7362 52.9062C64.9034 54.2039 65.9057 55.3704 66.7517 56.3713C67.7195 53.8971 69.3649 51.7455 71.4986 50.1625C69.4997 48.3651 66.9051 47.3714 64.2158 47.375ZM65.8046 61.0343C65.8132 60.7439 65.8218 60.4528 65.8483 60.1668L65.6949 59.9839C64.8718 58.996 63.6767 57.5693 62.2306 55.9296C61.2068 56.7663 60.8211 58.1564 61.267 59.4011C61.713 60.6457 62.8938 61.4745 64.2158 61.4709C64.7758 61.4738 65.3249 61.3232 65.8046 61.0343V61.0343ZM79.8782 72.4337C85.631 72.4359 90.4073 67.9908 90.8174 62.2524C91.2275 56.5139 87.133 51.4344 81.4383 50.6185C75.7429 49.8019 70.3859 53.5257 69.1678 59.1487C69.2208 59.1924 69.256 59.2426 69.3176 59.2864C69.851 59.6893 70.5013 59.9058 71.1702 59.9044H73.8358C74.5936 56.9599 77.3546 54.984 80.3866 55.217C83.4178 55.4493 85.8447 57.8238 86.1444 60.8493C86.444 63.8748 84.5291 66.6795 81.6018 67.5019C78.6752 68.3242 75.5802 66.9276 74.2595 64.1888C74.2316 64.143 74.2058 64.0964 74.1828 64.0476C74.0387 63.7214 73.9219 63.383 73.8358 63.0367H71.1702C70.4203 63.0317 69.6775 62.8926 68.9771 62.6245C69.5743 68.198 74.2732 72.4266 79.8782 72.4337ZM79.8782 64.6032C81.6082 64.6032 83.0106 63.2009 83.0106 61.4709C83.0106 59.7409 81.6082 58.3378 79.8782 58.3378C78.1483 58.3378 76.7459 59.7409 76.7459 61.4709C76.7473 63.2002 78.149 64.6011 79.8782 64.6032V64.6032ZM64.2158 69.3014C65.4332 69.2957 66.6413 69.0863 67.7891 68.6819C66.9718 67.3291 66.3896 65.8464 66.0677 64.2985C63.2415 65.1911 60.178 63.9723 58.7376 61.382C57.2973 58.7924 57.878 55.546 60.1271 53.6167C59.033 52.4302 57.944 51.2996 56.8592 50.2227C53.4975 53.2633 52.3554 58.0597 53.9864 62.2882C55.6168 66.5175 59.6833 69.305 64.2158 69.3014ZM20.3623 72.4337C28.129 72.4416 34.9386 67.2459 36.9833 59.7531C39.028 52.261 35.8011 44.3265 29.1076 40.3884L24.3564 50.4199C26.751 52.4496 27.2637 55.9425 25.5537 58.5744C23.8438 61.2071 20.4433 62.1577 17.6157 60.7948C14.7881 59.4312 13.4144 56.1791 14.4088 53.2016C15.4032 50.2241 18.456 48.4504 21.5352 49.0598L26.2779 39.0462C19.8182 36.6796 12.5705 38.3845 7.84371 43.3823C3.11616 48.3794 1.81777 55.7117 4.54002 62.0287C7.26226 68.3464 13.4832 72.4373 20.3623 72.4337V72.4337ZM20.3623 52.0732C18.6323 52.0732 17.23 53.4755 17.23 55.2055C17.23 56.9355 18.6323 58.3378 20.3623 58.3378C22.0923 58.3378 23.4947 56.9355 23.4947 55.2055C23.4932 53.4762 22.0916 52.0753 20.3623 52.0732Z" fill="black"/>
</svg>
