<svg width="70" height="88" viewBox="0 0 70 88" fill="none" xmlns="http://www.w3.org/2000/svg">
<path fill-rule="evenodd" clip-rule="evenodd" d="M68.1203 13.7249C40.5507 10.5491 36.6023 1.37181 36.5203 1.169C36.4054 0.858094 36.198 0.589852 35.9261 0.400397C35.6541 0.210943 35.3306 0.109375 34.9992 0.109375C34.6677 0.109375 34.3442 0.210943 34.0723 0.400397C33.8003 0.589852 33.5929 0.858094 33.4781 1.169C33.4421 1.26119 29.6154 10.5325 1.87621 13.7277C1.48286 13.7728 1.11985 13.9609 0.856329 14.2564C0.592813 14.5519 0.447222 14.934 0.447303 15.3299V46.0551C0.437245 53.5544 2.45864 60.9164 6.29678 67.359C10.1349 73.8017 15.6465 79.0844 22.246 82.6462C26.1577 84.7871 30.2761 86.5266 34.5382 87.8382C34.8407 87.9291 35.1632 87.9291 35.4656 87.8382C39.7262 86.5264 43.843 84.7868 47.7533 82.6462C54.3528 79.0844 59.8644 73.8017 63.7025 67.359C67.5406 60.9164 69.562 53.5544 69.552 46.0551V15.3299C69.5527 14.9331 69.407 14.55 69.1428 14.2538C68.8787 13.9577 68.5146 13.7694 68.1203 13.7249ZM66.3227 46.0551C66.3326 52.9723 64.4685 59.7631 60.9285 65.7059C57.3885 71.6487 52.3048 76.5215 46.2175 79.8068C42.6409 81.7633 38.8841 83.3705 34.9992 84.6061C31.1142 83.3705 27.3574 81.7633 23.7809 79.8068C17.6936 76.5215 12.6099 71.6487 9.06986 65.7059C5.52987 59.7631 3.6658 52.9723 3.67571 46.0551V16.757C24.2713 14.1573 32.122 8.10611 34.9863 4.68042C36.2906 6.20146 37.815 7.51894 39.509 8.58917C45.5104 12.5256 54.5263 15.2709 66.3227 16.7561V46.0551ZM34.0379 10.029C26.7717 15.422 14.6896 18.1046 8.13411 19.2256C7.75824 19.2892 7.417 19.4837 7.17082 19.7748C6.92465 20.0659 6.78942 20.4347 6.7891 20.8159V46.0549C6.77999 52.41 8.4926 58.6488 11.745 64.1086C14.9974 69.5683 19.668 74.0451 25.2607 77.0631C28.2157 78.6731 31.2966 80.0405 34.473 81.1516C34.8136 81.2685 35.1834 81.2685 35.5239 81.1516C38.7005 80.0398 41.7814 78.6715 44.7362 77.0604C50.3285 74.0425 54.9989 69.5662 58.2512 64.107C61.5036 58.6478 63.2164 52.4095 63.2078 46.0549V20.8159C63.2076 20.4352 63.0729 20.0668 62.8275 19.7758C62.5821 19.4849 62.2417 19.29 61.8665 19.2256C55.3073 18.1046 43.2253 15.422 35.9591 10.029C35.6814 9.82247 35.3445 9.71094 34.9985 9.71094C34.6524 9.71094 34.3155 9.82247 34.0379 10.029ZM59.9813 46.0549C59.9899 51.8279 58.4345 57.4954 55.4803 62.4552C52.5261 67.415 48.2834 71.4819 43.2031 74.2238C40.5654 75.661 37.8227 76.8964 34.9985 77.9196C32.1742 76.8964 29.4315 75.661 26.7938 74.2238C21.7134 71.482 17.4707 67.4151 14.5165 62.4553C11.5623 57.4955 10.0069 51.8279 10.0157 46.0549V22.1692C17.8636 20.7375 27.9858 18.0825 34.9985 13.3017C42.0112 18.0807 52.1333 20.7357 59.9813 22.1673V46.0549ZM28.3505 37.3505V26.9453C28.3505 26.5174 28.5205 26.1071 28.823 25.8045C29.1256 25.502 29.5359 25.332 29.9638 25.332H40.0362C40.4641 25.332 40.8744 25.502 41.177 25.8045C41.4795 26.1071 41.6495 26.5174 41.6495 26.9453V37.3505H52.0547C52.4826 37.3505 52.8929 37.5205 53.1954 37.823C53.498 38.1256 53.668 38.5359 53.668 38.9638V49.0362C53.668 49.4641 53.498 49.8744 53.1954 50.177C52.8929 50.4795 52.4826 50.6495 52.0547 50.6495H41.6495V61.0547C41.6495 61.4826 41.4795 61.8929 41.177 62.1954C40.8744 62.498 40.4641 62.668 40.0362 62.668H29.9638C29.5359 62.668 29.1256 62.498 28.823 62.1954C28.5205 61.8929 28.3505 61.4826 28.3505 61.0547V50.6495H17.9453C17.5174 50.6495 17.1071 50.4795 16.8045 50.177C16.502 49.8744 16.332 49.4641 16.332 49.0362V38.9638C16.332 38.5359 16.502 38.1256 16.8045 37.823C17.1071 37.5205 17.5174 37.3505 17.9453 37.3505H28.3505ZM31.5771 28.5586V38.9638C31.5768 39.3916 31.4068 39.8018 31.1043 40.1043C30.8018 40.4068 30.3916 40.5768 29.9638 40.5771H19.5586V47.4229H29.9638C30.3916 47.4232 30.8018 47.5932 31.1043 47.8957C31.4068 48.1982 31.5768 48.6084 31.5771 49.0362V59.4414H38.4229V49.0362C38.4232 48.6084 38.5932 48.1982 38.8957 47.8957C39.1982 47.5932 39.6084 47.4232 40.0362 47.4229H50.4414V40.5771H40.0362C39.6084 40.5768 39.1982 40.4068 38.8957 40.1043C38.5932 39.8018 38.4232 39.3916 38.4229 38.9638V28.5586H31.5771Z" fill="black"/>
</svg>
