<svg width="25" height="16" viewBox="0 0 25 16" fill="none" xmlns="http://www.w3.org/2000/svg">
<path d="M4.54873 1.67946H1.52107C0.733799 1.72336 0.925396 2.45504 1.52107 4.03298C2.41042 6.4135 3.31013 7.86172 5.15429 10.5051C6.86194 12.4698 8.04235 13.3799 10.6041 14.6238C11.9279 15.0301 13.6318 15.2125 14.2373 14.6238C14.8429 14.0351 14.2373 10.5048 14.8429 10.5051C15.4484 10.5054 17.989 12.7688 19.6872 14.6238C20.511 15.4069 23.3204 14.6235 23.9259 14.0354C24.5315 13.4473 21.2717 10.3854 19.6872 8.15162C19.6872 8.15162 23.741 2.33854 23.3204 1.67946C22.8998 1.02039 19.8919 1.09017 19.0816 1.67946C18.2713 2.26875 17.265 5.20973 17.265 5.20973C17.265 5.20973 16.0539 7.56303 14.8429 7.56303C13.6318 7.56303 14.2374 2.26806 14.2373 1.67946C14.2373 1.09087 8.78749 0.502718 8.78749 1.67946C8.78749 2.85621 9.99856 3.4446 9.99859 4.03298C9.99861 4.62135 11.0625 9.99954 9.39305 8.74C7.7236 7.48046 5.15427 1.67946 4.54873 1.67946Z" stroke="white"/>
</svg>
